<svg width="17" height="18" viewBox="0 0 17 18" fill="none" xmlns="http://www.w3.org/2000/svg">
<path d="M12.7504 5.68257C12.7058 5.67549 12.6604 5.67549 12.6158 5.68257C12.1363 5.66494 11.6829 5.45982 11.3532 5.11133C11.0234 4.76284 10.8435 4.29883 10.8524 3.81912C10.8612 3.33941 11.0579 2.88232 11.4003 2.54618C11.7427 2.21005 12.2033 2.02173 12.6831 2.02173C13.1629 2.02173 13.6235 2.21005 13.9659 2.54618C14.3083 2.88232 14.505 3.33941 14.5138 3.81912C14.5226 4.29883 14.3428 4.76284 14.013 5.11133C13.6832 5.45982 13.2299 5.66494 12.7504 5.68257Z" fill="#C2D7E4" stroke="#015790" stroke-width="0.6" stroke-linecap="round" stroke-linejoin="round"/>
<path d="M12.0203 10.8392C12.9816 11.0167 13.9747 10.8352 14.8111 10.3292C15.0362 10.2168 15.2256 10.044 15.358 9.83005C15.4903 9.6161 15.5604 9.36949 15.5604 9.1179C15.5604 8.86632 15.4903 8.61971 15.358 8.40576C15.2256 8.1918 15.0362 8.01897 14.8111 7.90665C13.9671 7.40005 12.9663 7.22108 11.999 7.40374" fill="#C2D7E4"/>
<path d="M12.0203 10.8392C12.9816 11.0167 13.9747 10.8352 14.8111 10.3292C15.0362 10.2168 15.2256 10.044 15.358 9.83005C15.4903 9.6161 15.5604 9.36949 15.5604 9.1179C15.5604 8.86632 15.4903 8.61971 15.358 8.40576C15.2256 8.1918 15.0362 8.01897 14.8111 7.90665C13.9671 7.40005 12.9663 7.22108 11.999 7.40374" stroke="#015790" stroke-width="0.6" stroke-linecap="round" stroke-linejoin="round"/>
<path d="M4.23006 5.68257C4.27464 5.67549 4.32006 5.67549 4.36464 5.68257C4.84411 5.66494 5.29751 5.45982 5.62729 5.11133C5.95708 4.76284 6.1369 4.29883 6.12808 3.81912C6.11927 3.33941 5.92251 2.88232 5.58014 2.54618C5.23777 2.21005 4.77714 2.02173 4.29735 2.02173C3.81756 2.02173 3.35693 2.21005 3.01456 2.54618C2.67219 2.88232 2.47544 3.33941 2.46662 3.81912C2.4578 4.29883 2.63763 4.76284 2.96741 5.11133C3.2972 5.45982 3.75059 5.66494 4.23006 5.68257Z" fill="#C2D7E4" stroke="#015790" stroke-width="0.6" stroke-linecap="round" stroke-linejoin="round"/>
<path d="M4.96204 10.8393C4.00069 11.0168 3.00764 10.8354 2.1712 10.3293C1.94608 10.217 1.75671 10.0442 1.62435 9.83024C1.49199 9.61628 1.42188 9.36967 1.42188 9.11809C1.42187 8.8665 1.49199 8.61989 1.62435 8.40594C1.75671 8.19198 1.94608 8.01915 2.1712 7.90684C3.01467 7.40075 4.01453 7.2218 4.98116 7.40392" fill="#C2D7E4"/>
<path d="M4.96204 10.8393C4.00069 11.0168 3.00764 10.8354 2.1712 10.3293C1.94608 10.217 1.75671 10.0442 1.62435 9.83024C1.49199 9.61628 1.42188 9.36967 1.42188 9.11809C1.42187 8.8665 1.49199 8.61989 1.62435 8.40594C1.75671 8.19198 1.94608 8.01915 2.1712 7.90684C3.01467 7.40075 4.01453 7.2218 4.98116 7.40392" stroke="#015790" stroke-width="0.6" stroke-linecap="round" stroke-linejoin="round"/>
<path d="M8.49794 10.9738C8.45336 10.9667 8.40794 10.9667 8.36336 10.9738C7.88389 10.9562 7.4305 10.7511 7.10071 10.4026C6.77093 10.0541 6.5911 9.59009 6.59992 9.11038C6.60874 8.63067 6.80549 8.17358 7.14786 7.83744C7.49023 7.50131 7.95086 7.31299 8.43065 7.31299C8.91045 7.31299 9.37107 7.50131 9.71344 7.83744C10.0558 8.17358 10.2526 8.63067 10.2614 9.11038C10.2702 9.59009 10.0904 10.0541 9.76059 10.4026C9.43081 10.7511 8.97741 10.9562 8.49794 10.9738Z" fill="#C2D7E4" stroke="#015790" stroke-width="0.6" stroke-linecap="round" stroke-linejoin="round"/>
<path d="M6.43732 13.205C6.21219 13.3173 6.02282 13.4902 5.89046 13.7041C5.7581 13.9181 5.68799 14.1647 5.68799 14.4163C5.68799 14.6678 5.7581 14.9145 5.89046 15.1284C6.02282 15.3424 6.21219 15.5152 6.43732 15.6275C7.06051 15.9995 7.77277 16.196 8.49857 16.196C9.22436 16.196 9.93663 15.9995 10.5598 15.6275C10.7849 15.5152 10.9743 15.3424 11.1067 15.1284C11.239 14.9145 11.3091 14.6678 11.3091 14.4163C11.3091 14.1647 11.239 13.9181 11.1067 13.7041C10.9743 13.4902 10.7849 13.3173 10.5598 13.205C9.93546 12.8363 9.22365 12.6418 8.49857 12.6418C7.77348 12.6418 7.06167 12.8363 6.43732 13.205Z" fill="#C2D7E4" stroke="#015790" stroke-width="0.6" stroke-linecap="round" stroke-linejoin="round"/>
</svg>
