<svg width="17" height="18" viewBox="0 0 17 18" fill="none" xmlns="http://www.w3.org/2000/svg">
<path d="M15.563 13.5947C15.5619 13.862 15.5014 14.1257 15.3859 14.3668C15.2622 14.6302 15.0999 14.8738 14.9042 15.0893C14.5852 15.4522 14.188 15.738 13.7426 15.9251C13.3047 16.1059 12.8351 16.1974 12.3613 16.1943C11.5646 16.1795 10.7791 16.0036 10.0521 15.6772C9.18954 15.3033 8.3721 14.8327 7.61548 14.2747C6.79247 13.6727 6.01584 13.0097 5.29214 12.2913C4.57585 11.5703 3.91521 10.796 3.31589 9.9751C2.76544 9.22363 2.29983 8.41356 1.92756 7.55968C1.60426 6.82951 1.43084 6.04186 1.41756 5.24343C1.41451 4.77564 1.50107 4.31159 1.67256 3.87635C1.85272 3.42636 2.13101 3.02224 2.48714 2.69343C2.67568 2.48952 2.90323 2.32552 3.15631 2.21115C3.40938 2.09678 3.68284 2.03436 3.96047 2.0276C4.15884 2.02681 4.35487 2.07037 4.53422 2.1551C4.72555 2.2417 4.88963 2.37884 5.00881 2.55177L6.65214 4.86802C6.76579 5.02155 6.8609 5.18798 6.93547 5.36385C6.99699 5.49983 7.03071 5.64673 7.03464 5.79593C7.03263 5.97412 6.98113 6.14824 6.88589 6.29885C6.77665 6.4834 6.64325 6.65253 6.48922 6.80176L5.95089 7.36135C5.91339 7.39814 5.88396 7.44233 5.86445 7.4911C5.84493 7.53988 5.83578 7.59218 5.83756 7.64468C5.83765 7.69967 5.84479 7.75442 5.85881 7.8076C5.88006 7.86426 5.90131 7.90676 5.91547 7.94926C6.10569 8.27177 6.32627 8.57538 6.57423 8.85593C6.89298 9.22426 7.23298 9.59968 7.60131 9.9751C7.98381 10.3505 8.35214 10.6976 8.72756 11.0163C9.00884 11.2645 9.31506 11.4829 9.64131 11.668C9.67673 11.6822 9.71922 11.7034 9.76881 11.7247C9.82558 11.745 9.88562 11.7546 9.94589 11.753C10 11.7542 10.0538 11.7441 10.1038 11.7234C10.1538 11.7027 10.1989 11.6717 10.2363 11.6326L10.7746 11.1013C10.9239 10.9445 11.0958 10.8108 11.2846 10.7047C11.4349 10.6086 11.6092 10.557 11.7876 10.5559C11.9362 10.558 12.083 10.5893 12.2196 10.648C12.394 10.7227 12.5602 10.8153 12.7155 10.9243L15.0601 12.5888C15.2302 12.7001 15.3653 12.8573 15.4496 13.0422C15.5231 13.2172 15.5616 13.4049 15.563 13.5947Z" fill="#C2D7E4" stroke="#015790" stroke-width="0.6"/>
</svg>
