<svg width="17" height="18" viewBox="0 0 17 18" fill="none" xmlns="http://www.w3.org/2000/svg">
<path d="M6.30469 5.96576C6.52427 3.41576 7.83469 2.37451 10.7034 2.37451H10.7955C13.9618 2.37451 15.2297 3.64243 15.2297 6.80868V11.427C15.2297 14.5933 13.9618 15.8612 10.7955 15.8612H10.7034C7.85594 15.8612 6.54552 14.8341 6.31177 12.3266" fill="#C2D7E4"/>
<path d="M6.30469 5.96576C6.52427 3.41576 7.83469 2.37451 10.7034 2.37451H10.7955C13.9618 2.37451 15.2297 3.64243 15.2297 6.80868V11.427C15.2297 14.5933 13.9618 15.8612 10.7955 15.8612H10.7034C7.85594 15.8612 6.54552 14.8341 6.31177 12.3266" stroke="#015790" stroke-width="0.8" stroke-linecap="round" stroke-linejoin="round"/>
<path d="M10.6248 9.11084H2.56396H10.6248Z" fill="#C2D7E4"/>
<path d="M10.6248 9.11084H2.56396" stroke="#015790" stroke-width="0.8" stroke-linecap="round" stroke-linejoin="round"/>
<path d="M4.14391 6.73804L1.771 9.11095L4.14391 11.4839" stroke="#015790" stroke-width="0.8" stroke-linecap="round" stroke-linejoin="round"/>
</svg>
