<svg width="17" height="18" viewBox="0 0 17 18" fill="none" xmlns="http://www.w3.org/2000/svg">
<path d="M15 8.27448V3.9472C15 2.99266 14.6235 2.61084 13.6882 2.61084H11.3118C10.3765 2.61084 10 2.99266 10 3.9472V8.27448C10 9.22902 10.3765 9.61084 11.3118 9.61084H13.6882C14.6235 9.61084 15 9.22902 15 8.27448Z" fill="#C2D7E4" stroke="#015790" stroke-width="0.6" stroke-linecap="round" stroke-linejoin="round"/>
<path d="M15 14.2108V13.0108C15 12.0108 14.6235 11.6108 13.6882 11.6108H11.3118C10.3765 11.6108 10 12.0108 10 13.0108V14.2108C10 15.2108 10.3765 15.6108 11.3118 15.6108H13.6882C14.6235 15.6108 15 15.2108 15 14.2108Z" fill="#C2D7E4" stroke="#015790" stroke-width="0.6" stroke-linecap="round" stroke-linejoin="round"/>
<path d="M8 9.9472V14.2745C8 15.229 7.54824 15.6108 6.42588 15.6108H3.57412C2.45176 15.6108 2 15.229 2 14.2745V9.9472C2 8.99266 2.45176 8.61084 3.57412 8.61084H6.42588C7.54824 8.61084 8 8.99266 8 9.9472Z" fill="#C2D7E4" stroke="#015790" stroke-width="0.6" stroke-linecap="round" stroke-linejoin="round"/>
<path d="M8 4.01084V5.21084C8 6.21084 7.54824 6.61084 6.42588 6.61084H3.57412C2.45176 6.61084 2 6.21084 2 5.21084V4.01084C2 3.01084 2.45176 2.61084 3.57412 2.61084H6.42588C7.54824 2.61084 8 3.01084 8 4.01084Z" fill="#C2D7E4" stroke="#015790" stroke-width="0.6" stroke-linecap="round" stroke-linejoin="round"/>
</svg>
