<svg width="17" height="18" viewBox="0 0 17 18" fill="none" xmlns="http://www.w3.org/2000/svg">
<path d="M8.93902 15.3512C8.65241 15.4362 8.3473 15.4362 8.06069 15.3512C6.00652 14.65 1.41652 11.7246 1.41652 6.76622C1.41503 6.24761 1.51573 5.73379 1.71286 5.2541C1.90999 4.77442 2.19969 4.33827 2.56542 3.97057C2.93115 3.60287 3.36573 3.31082 3.84435 3.11111C4.32297 2.9114 4.83624 2.80794 5.35485 2.80664C5.96671 2.80634 6.57008 2.94977 7.11635 3.22536C7.66262 3.50096 8.13651 3.90102 8.49985 4.39331C8.99402 3.72793 9.68594 3.23587 10.4767 2.98748C11.2674 2.7391 12.1164 2.74711 12.9023 3.01038C13.6881 3.27365 14.3707 3.7787 14.8522 4.45328C15.3337 5.12786 15.5896 5.93744 15.5832 6.76622C15.5832 11.7246 10.9932 14.65 8.93902 15.3512Z" fill="#C2D7E4" stroke="#015790" stroke-width="0.8" stroke-linecap="round" stroke-linejoin="round"/>
</svg>
