<svg width="17" height="18" viewBox="0 0 17 18" fill="none" xmlns="http://www.w3.org/2000/svg">
<path d="M7.03419 2.36754L3.25169 4.46421C2.7999 4.74823 2.42268 5.13629 2.15157 5.59595C1.88046 6.0556 1.72334 6.57349 1.69336 7.10629L1.69336 11.1084C1.72334 11.6412 1.88046 12.1591 2.15157 12.6187C2.42268 13.0784 2.7999 13.4664 3.25169 13.7505L7.03419 15.8542C7.49284 16.0745 7.99516 16.1889 8.50398 16.1889C9.01281 16.1889 9.51513 16.0745 9.97378 15.8542L13.7563 13.7505C14.2081 13.4664 14.5853 13.0784 14.8564 12.6187C15.1275 12.1591 15.2846 11.6412 15.3146 11.1084V7.10629C15.2846 6.57349 15.1275 6.0556 14.8564 5.59595C14.5853 5.13629 14.2081 4.74823 13.7563 4.46421L9.97378 2.36046C9.51508 2.13953 9.0123 2.02539 8.50317 2.02662C7.99405 2.02785 7.49182 2.14441 7.03419 2.36754Z" fill="#C2D7E4" stroke="#015790" stroke-width="0.6" stroke-linecap="round" stroke-linejoin="round"/>
<path d="M2.24512 5.88086L8.4997 9.50044L14.7118 5.90211" stroke="#015790" stroke-width="0.6" stroke-linecap="round" stroke-linejoin="round"/>
<path d="M8.5 15.918V9.49341" stroke="#015790" stroke-width="0.6" stroke-linecap="round" stroke-linejoin="round"/>
</svg>
