<svg width="17" height="18" viewBox="0 0 17 18" fill="none" xmlns="http://www.w3.org/2000/svg">
<path d="M15.3425 8.00595L14.6483 10.9668C14.0533 13.5239 12.8775 14.558 10.6675 14.3455C10.2806 14.3118 9.89689 14.2479 9.51996 14.1543L8.32996 13.8709C5.37621 13.1697 4.46246 11.7105 5.15663 8.7497L5.8508 5.78178C5.96725 5.24452 6.14305 4.72187 6.37496 4.22345C7.20301 2.50928 8.6133 2.04886 10.9791 2.60845L12.162 2.8847C15.13 3.57886 16.0366 5.04511 15.3425 8.00595Z" fill="#C2D7E4" stroke="#015790" stroke-width="0.6" stroke-linecap="round" stroke-linejoin="round"/>
<path d="M10.668 14.3455C10.1511 14.6762 9.59095 14.9336 9.0034 15.1105L7.88424 15.4788C5.07215 16.3855 3.59174 15.6276 2.67799 12.8155L1.77132 10.0176C0.864653 7.20547 1.61549 5.71797 4.42757 4.81131L5.54674 4.44297C5.81841 4.35348 6.09514 4.28015 6.37549 4.22339C6.14357 4.72181 5.96777 5.24446 5.85132 5.78172L5.15715 8.74964C4.46299 11.7105 5.37674 13.1696 8.33049 13.8709L9.52049 14.1542C9.89741 14.2478 10.2811 14.3117 10.668 14.3455Z" fill="#C2D7E4" stroke="#015790" stroke-width="0.6" stroke-linecap="round" stroke-linejoin="round"/>
<path d="M8.95361 6.65283L12.389 7.52408L8.95361 6.65283Z" fill="#C2D7E4"/>
<path d="M8.95361 6.65283L12.389 7.52408" stroke="#015790" stroke-width="0.6" stroke-linecap="round" stroke-linejoin="round"/>
<path d="M8.25928 9.39429L10.3134 9.91845L8.25928 9.39429Z" fill="#C2D7E4"/>
<path d="M8.25928 9.39429L10.3134 9.91845" stroke="#015790" stroke-width="0.6" stroke-linecap="round" stroke-linejoin="round"/>
</svg>
