<svg width="17" height="18" viewBox="0 0 17 18" fill="none" xmlns="http://www.w3.org/2000/svg">
<path d="M2.82533 10.9951L1.74867 9.91839C1.53775 9.70539 1.41943 9.41774 1.41943 9.11798C1.41943 8.81821 1.53775 8.53057 1.74867 8.31756L2.82533 7.24089C3.02414 7.01974 3.14158 6.73739 3.15825 6.44048V4.91756C3.15825 4.61698 3.27766 4.32871 3.4902 4.11617C3.70274 3.90363 3.99101 3.78423 4.29158 3.78423H5.81096C6.10787 3.76755 6.39022 3.65012 6.61138 3.45131L7.69158 2.37464C7.90459 2.16373 8.19224 2.04541 8.492 2.04541C8.79176 2.04541 9.07941 2.16373 9.29242 2.37464L10.3691 3.45131C10.5902 3.65012 10.8726 3.76755 11.1695 3.78423H12.6924C12.993 3.78423 13.2813 3.90363 13.4938 4.11617C13.7063 4.32871 13.8257 4.61698 13.8257 4.91756V6.43694C13.8424 6.73385 13.9599 7.0162 14.1587 7.23735L15.2353 8.31402C15.4462 8.52703 15.5646 8.81467 15.5646 9.11444C15.5646 9.4142 15.4462 9.70185 15.2353 9.91485L14.1587 10.9915C13.9599 11.2127 13.8424 11.495 13.8257 11.7919V13.3149C13.8257 13.6154 13.7063 13.9037 13.4938 14.1162C13.2813 14.3288 12.993 14.4482 12.6924 14.4482H11.1695C10.8726 14.4649 10.5902 14.5823 10.3691 14.7811L9.29242 15.8578C9.07941 16.0687 8.79176 16.187 8.492 16.187C8.19224 16.187 7.90459 16.0687 7.69158 15.8578L6.61492 14.7811C6.39376 14.5823 6.11141 14.4649 5.8145 14.4482H4.29158C3.99101 14.4482 3.70274 14.3288 3.4902 14.1162C3.27766 13.9037 3.15825 13.6154 3.15825 13.3149V11.7919C3.14336 11.4957 3.02563 11.2139 2.82533 10.9951Z" fill="#C2D7E4" stroke="#015790" stroke-width="0.4" stroke-linecap="round" stroke-linejoin="round"/>
<path d="M6.375 11.2358L10.625 6.98584" stroke="#015790" stroke-width="0.4" stroke-linecap="round" stroke-linejoin="round"/>
<path d="M10.2666 10.8816H10.2701H10.2666Z" fill="#C2D7E4"/>
<path d="M10.2666 10.8816H10.2701" stroke="#015790" stroke-width="2" stroke-linecap="round" stroke-linejoin="round"/>
<path d="M6.7251 7.34009H6.72864" stroke="#015790" stroke-width="2" stroke-linecap="round" stroke-linejoin="round"/>
</svg>
