<svg width="258" height="258" viewBox="0 0 258 258" fill="none" xmlns="http://www.w3.org/2000/svg">
<g clip-path="url(#clip0_2671_3840)">
<path d="M0.336182 0C85.2542 0 170.172 0 257.664 0C257.664 84.9181 257.664 169.836 257.664 257.327C172.746 257.327 87.8275 257.327 0.336182 257.327C0.336182 172.409 0.336182 87.4913 0.336182 0Z" fill="black"/>
<path d="M1.08997 0.753906C85.5105 0.753906 169.931 0.753906 256.91 0.753906C256.91 85.1744 256.91 169.595 256.91 256.574C253.133 256.574 249.458 256.566 245.711 256.259C245.5 256.243 245.288 256.226 245.07 256.209C226.953 254.779 207.922 251.029 192.578 240.742C192.308 240.562 192.308 240.562 192.033 240.379C181.988 233.634 174.719 224.466 172.294 212.425C171.995 210.83 171.754 209.226 171.532 207.618C171.483 207.276 171.483 207.276 171.434 206.928C171.194 205.046 171.186 203.184 171.218 201.288C171.473 201.276 171.728 201.263 171.991 201.25C189.962 200.356 208.913 197.276 221.979 183.698C226.537 178.659 229.637 172.425 231.277 165.856C231.353 165.565 231.429 165.274 231.507 164.975C233.435 156.191 231.647 146.931 227.759 138.967C227.675 138.793 227.592 138.619 227.505 138.44C224.674 132.635 220.666 127.45 216.702 122.381C207.033 110.01 207.033 110.01 205.143 102.529C205.065 102.225 204.988 101.922 204.908 101.609C204.375 99.1016 204.31 96.6066 204.251 94.0506C203.758 72.9045 199.723 50.1205 180.98 29.1343C170.91 19.6405 157.388 14.5534 143.826 12.8161C143.532 12.7782 143.239 12.7402 142.936 12.7012C131.944 11.3501 120.28 11.4785 109.399 13.57C109.154 13.6163 108.909 13.6627 108.657 13.7104C97.433 15.8757 86.5094 20.5716 78.0495 28.3808C77.5524 28.8364 77.0438 29.2686 76.526 29.7001C73.6105 32.2585 71.2066 35.3182 68.94 38.4484C68.7745 38.6759 68.7745 38.6759 68.6056 38.908C62.5413 47.3455 58.6585 57.6953 56.6265 67.85C56.5494 68.2325 56.5494 68.2325 56.4709 68.6227C55.7745 72.1482 55.2367 75.6864 54.8046 79.2526C54.7837 79.4239 54.7628 79.5953 54.7414 79.7718C54.3549 82.9814 54.1261 86.1811 54.0055 89.4105C53.9963 89.6535 53.9871 89.8965 53.9777 90.1468C53.9209 91.6584 53.9209 91.6584 53.8687 93.1701C53.7348 97.1727 53.544 101.244 52.1974 105.058C52.1338 105.242 52.0702 105.426 52.0047 105.615C50.6843 109.269 48.5937 112.47 46.3233 115.596C46.1828 115.79 46.0423 115.984 45.8975 116.184C44.2853 118.403 42.6412 120.595 40.9646 122.765C37.1045 127.77 33.3983 132.835 30.4916 138.464C30.4098 138.621 30.3281 138.778 30.2438 138.94C28.836 141.68 27.8365 144.558 26.9735 147.511C26.916 147.704 26.8585 147.897 26.7992 148.096C25.961 151.042 25.8775 153.972 25.8741 157.013C25.8733 157.292 25.8733 157.292 25.8725 157.576C25.8736 161.091 26.1658 164.494 27.2248 167.866C27.3038 168.137 27.3829 168.409 27.4643 168.689C30.7481 179.349 38.3394 187.562 48.0824 192.744C48.2293 192.824 48.3763 192.905 48.5277 192.987C59.1771 198.77 71.7453 200.762 83.7193 201.178C84.0162 201.189 84.3131 201.2 84.619 201.211C85.34 201.238 86.061 201.263 86.782 201.288C86.8605 209.387 85.2809 217.556 81.2535 224.659C81.1593 224.826 81.065 224.992 80.968 225.164C78.1969 229.987 74.3446 234.091 69.9452 237.475C69.811 237.58 69.6768 237.684 69.5385 237.792C60.2476 244.988 48.9175 249.674 37.5549 252.424C37.0486 252.547 36.5442 252.676 36.0398 252.807C33.7758 253.381 31.4884 253.801 29.188 254.202C28.7612 254.277 28.7612 254.277 28.3258 254.353C23.6543 255.146 18.9794 255.699 14.2546 256.055C13.4205 256.118 12.5867 256.185 11.7529 256.253C11.2014 256.296 10.6499 256.338 10.0984 256.38C9.85969 256.4 9.62103 256.419 9.37514 256.44C6.6008 256.641 3.8965 256.574 1.08997 256.574C1.08997 172.153 1.08997 87.7326 1.08997 0.753906Z" fill="#FCBCBE"/>
<path d="M128.749 61.8184C128.914 61.8184 129.08 61.8184 129.251 61.8184C129.555 62.2475 129.839 62.6902 130.115 63.1377C136.32 72.6349 148.068 77.0875 158.04 81.4195C169.379 86.3499 179.204 91.304 184.108 103.327C185.813 107.798 186.493 112.393 186.974 117.13C187.075 118.103 187.192 119.071 187.316 120.041C187.35 120.311 187.384 120.582 187.419 120.86C187.57 121.73 187.799 122.542 188.055 123.386C188.826 123.216 188.826 123.216 189.118 122.657C189.866 121.084 190.54 119.493 191.18 117.873C193.702 111.641 193.702 111.641 196.347 110.319C197.592 110.182 198.577 110.177 199.708 110.743C201.913 112.685 202.841 115.224 203.132 118.109C203.338 121.6 203.32 125.029 202.378 128.412C202.33 128.593 202.281 128.775 202.231 128.962C201.806 130.547 201.343 132.118 200.871 133.689C200.786 133.973 200.701 134.256 200.613 134.549C195.56 151.326 195.56 151.326 190.897 154.044C190.539 154.218 190.178 154.387 189.814 154.547C189.58 154.656 189.347 154.764 189.107 154.877C187.842 155.149 186.578 155.087 185.29 155.049C185.259 155.227 185.228 155.406 185.196 155.589C182.64 168.784 176.121 182.738 166.965 192.678C166.491 193.194 166.034 193.719 165.579 194.252C163.902 196.167 162.093 197.889 160.103 199.476C159.647 199.84 159.195 200.21 158.75 200.587C151.947 206.332 143.164 210.59 134.277 211.591C134.087 211.614 133.897 211.637 133.702 211.661C120.853 213.103 109.104 208.248 99.1221 200.43C97.9658 199.485 96.8805 198.461 95.7973 197.434C95.0929 196.761 95.0929 196.761 94.3524 196.205C94.1761 196.058 93.9999 195.911 93.8184 195.759C93.8184 195.593 93.8184 195.428 93.8184 195.257C93.6525 195.257 93.4867 195.257 93.3158 195.257C92.9614 194.905 92.9614 194.905 92.5462 194.409C91.8831 193.625 91.2041 192.866 90.5044 192.116C81.7803 182.401 74.4386 167.796 72.7095 154.798C72.5436 154.881 72.3778 154.964 72.2069 155.049C70.0269 155.31 68.088 154.835 66.2759 153.597C60.1653 148.518 58.2853 138.336 56.2339 130.988C56.1529 130.7 56.0719 130.412 55.9884 130.115C54.487 124.583 53.7082 117.856 56.6108 112.659C57.2942 111.617 58.0159 110.88 59.1395 110.319C60.3568 110.185 61.3552 110.176 62.4691 110.711C64.0434 112.107 64.9786 113.54 65.7988 115.47C65.943 115.799 65.943 115.799 66.09 116.135C66.804 117.777 67.4744 119.435 68.1135 121.108C68.4182 121.832 68.7685 122.473 69.1913 123.135C69.9624 122.976 69.9624 122.976 70.1661 122.449C70.6244 120.801 70.81 119.178 70.9504 117.48C71.6426 109.114 73.6472 100.335 79.4945 93.9843C79.6136 93.8545 79.7328 93.7247 79.8556 93.5909C86.0198 86.952 94.7605 83.6886 102.912 80.1473C117.614 73.8048 117.614 73.8048 128.385 62.3435C128.505 62.1702 128.625 61.9969 128.749 61.8184Z" fill="#FCBCBE"/>
<path d="M0.336182 0C85.2542 0 170.172 0 257.664 0C257.664 78.9473 257.664 157.895 257.664 239.234C257.498 239.234 257.332 239.234 257.161 239.234C257.161 245.039 257.161 250.844 257.161 256.825C256.332 256.825 255.502 256.825 254.648 256.825C254.648 256.742 254.648 256.659 254.648 256.574C255.394 256.574 256.141 256.574 256.91 256.574C256.91 172.153 256.91 87.7326 256.91 0.753889C172.489 0.753889 88.0688 0.753889 1.09007 0.753889C1.09007 85.1744 1.09007 169.595 1.09007 256.574C1.83642 256.574 2.58277 256.574 3.35174 256.574C3.35174 256.656 3.35174 256.739 3.35174 256.825C2.52246 256.825 1.69318 256.825 0.838774 256.825C0.755847 216.107 0.672919 175.39 0.587478 133.438C0.50455 133.438 0.421622 133.438 0.336182 133.438C0.336182 89.4037 0.336182 45.369 0.336182 0Z" fill="#151010"/>
<path d="M128.106 171.583C128.707 171.934 128.707 171.934 129.256 171.849C129.866 171.589 130.452 171.295 131.042 170.993C133.304 169.964 135.097 170.266 137.412 171.038C138.906 171.624 140.315 172.363 141.739 173.099C142.83 173.658 143.932 174.196 145.036 174.731C145.249 174.837 145.461 174.942 145.681 175.051C147.201 175.785 148.719 176.269 150.36 176.663C150.395 177.255 150.395 177.255 150.36 177.919C145.152 183.311 136.974 186.1 129.637 186.286C125.144 186.326 120.793 185.531 116.686 183.699C116.397 183.573 116.107 183.447 115.809 183.317C112.838 181.933 110.172 179.988 107.64 177.919C107.723 177.505 107.806 177.09 107.891 176.663C108.147 176.592 108.403 176.522 108.667 176.449C111.36 175.676 113.764 174.493 116.199 173.129C120.143 170.937 123.848 169.035 128.106 171.583Z" fill="#020101"/>
<path d="M109.08 117.64C111.338 119.494 113.226 121.834 114.173 124.642C114.173 124.891 114.173 125.14 114.173 125.396C113.037 125.274 112.553 124.89 111.755 124.093C109.863 122.327 107.931 121.291 105.378 120.873C105.502 121.246 105.502 121.246 105.629 121.627C105.891 123.452 105.433 124.904 104.373 126.401C103.752 126.998 103.104 127.473 102.362 127.909C102.209 128.003 102.055 128.097 101.896 128.194C100.571 128.73 98.8567 128.61 97.4916 128.257C95.961 127.578 94.7771 126.291 94.0225 124.811C93.7727 123.99 93.7696 123.285 93.7869 122.428C93.7915 122.136 93.796 121.844 93.8007 121.543C93.8065 121.322 93.8123 121.101 93.8183 120.873C91.5592 121.034 90.2089 121.797 88.4469 123.197C87.286 124.065 86.5101 124.374 85.0652 124.239C83.8168 124.012 83.8168 124.012 83.2639 123.637C83.0356 122.939 82.9542 122.538 83.2119 121.843C85.8833 117.802 91.0122 115.856 95.5774 114.842C100.31 114.028 105.178 114.697 109.08 117.64Z" fill="#040203"/>
<path d="M176.796 104.642C177.877 105.643 178.945 106.707 179.058 108.233C179.008 108.812 179.008 108.812 178.757 109.063C176.873 109.241 175.311 108.676 173.542 108.073C172.983 107.888 172.425 107.702 171.866 107.517C171.498 107.392 171.498 107.392 171.123 107.266C168.174 106.312 165.189 106.85 162.218 107.477C161.877 107.546 161.536 107.615 161.194 107.683C160.179 107.888 159.165 108.098 158.15 108.309C155.06 108.949 151.979 109.586 148.852 110.021C148.521 110.068 148.521 110.068 148.184 110.115C144.238 110.633 144.238 110.633 142.821 109.817C142.108 108.746 142.16 107.806 142.319 106.55C143.291 104.604 144.893 103.781 146.842 103.032C147.828 102.734 148.823 102.494 149.826 102.262C150.101 102.198 150.375 102.133 150.658 102.067C159.177 100.108 169.573 98.6099 176.796 104.642Z" fill="#030202"/>
<path d="M172.601 119.361C173.593 120.21 174.38 120.958 174.987 122.13C175.034 122.837 175.034 122.837 174.987 123.387C173.683 124.211 172.471 124.432 170.966 124.141C170.211 123.729 169.596 123.204 168.956 122.633C167.526 121.502 165.912 121.105 164.181 120.623C164.193 120.853 164.205 121.084 164.217 121.322C164.281 123.52 164.243 125.009 162.715 126.645C161.146 128.115 159.757 128.552 157.618 128.508C156.067 128.304 154.677 127.582 153.627 126.418C152.765 125.099 152.558 123.977 152.59 122.413C152.595 122.124 152.599 121.834 152.604 121.536C152.61 121.317 152.616 121.099 152.622 120.874C149.865 120.999 147.707 122.59 145.839 124.491C144.931 125.397 144.931 125.397 143.826 125.397C144.896 121.514 147.401 118.394 150.863 116.351C157.509 112.675 166.843 114.807 172.601 119.361Z" fill="#030202"/>
<path d="M114.111 104.539C115.042 105.343 115.602 105.946 115.768 107.207C115.827 108.323 115.86 109.057 115.21 109.989C112.959 110.934 110.083 110.115 107.734 109.769C107.541 109.741 107.347 109.713 107.148 109.684C103.762 109.193 100.422 108.561 97.0853 107.806C92.5795 106.809 89.0107 106.391 84.5519 107.932C83.9201 108.147 83.2872 108.358 82.6534 108.568C82.2405 108.71 82.2405 108.71 81.8192 108.855C80.9271 109.081 80.1602 109.116 79.2433 109.062C78.992 108.811 78.992 108.811 78.9606 108.073C79.2736 106.143 81.2423 104.674 82.73 103.581C90.4769 98.4922 106.56 99.2294 114.111 104.539Z" fill="#030202"/>
<path d="M0.336182 0C10.1217 0 19.9071 0 29.9891 0C29.9891 0.0829278 29.9891 0.165856 29.9891 0.251296C104.873 0.334224 179.757 0.417152 256.91 0.502593C256.91 0.585521 256.91 0.668448 256.91 0.753889C172.489 0.753889 88.0687 0.753889 1.09007 0.753889C1.09007 85.1744 1.09007 169.595 1.09007 256.574C1.83642 256.574 2.58277 256.574 3.35174 256.574C3.35174 256.656 3.35174 256.739 3.35174 256.825C2.52246 256.825 1.69318 256.825 0.838774 256.825C0.755846 216.107 0.672919 175.39 0.587478 133.438C0.50455 133.438 0.421622 133.438 0.336182 133.438C0.336182 89.4037 0.336182 45.369 0.336182 0Z" fill="#3C2E2E"/>
<path d="M115.179 147.51C115.427 147.593 115.676 147.676 115.932 147.761C115.939 148.148 115.944 148.536 115.948 148.923C115.951 149.139 115.954 149.355 115.957 149.577C115.932 150.274 115.932 150.274 115.809 151.009C115.674 151.828 115.639 152.602 115.634 153.431C115.629 153.843 115.629 153.843 115.623 154.264C115.682 155.063 115.81 155.599 116.184 156.305C117.053 156.885 117.43 156.81 118.437 156.678C118.961 156.575 118.961 156.575 119.446 156.301C120.43 155.821 121.401 155.891 122.466 156.054C123.959 156.574 125.372 157.237 126.769 157.978C127.974 158.54 128.954 158.561 130.256 158.316C131.575 157.824 132.825 157.177 134.066 156.518C135.26 155.968 136.502 155.922 137.795 156.054C138.386 156.294 138.973 156.545 139.554 156.808C140.434 156.911 140.872 156.916 141.643 156.478C142.41 155.711 142.359 154.901 142.366 153.871C142.354 151.894 142.097 149.965 141.816 148.012C142.148 147.847 142.479 147.681 142.821 147.51C144.759 149.925 145.601 152.162 145.334 155.3C145.011 156.738 144.372 157.794 143.324 158.818C141.873 159.689 140.47 159.76 138.8 159.572C138.273 159.412 137.797 159.227 137.304 158.983C135.706 158.471 134.489 158.962 133.083 159.682C131.064 160.68 129.519 161.161 127.241 160.828C126.287 160.477 125.389 160.023 124.499 159.533C123.241 158.86 122.389 158.685 120.958 158.818C120.542 159.01 120.127 159.202 119.714 159.4C118.44 159.826 116.919 159.808 115.643 159.398C114.343 158.719 113.486 157.695 112.838 156.399C112.246 153.49 112.757 150.877 114.378 148.413C114.676 148.012 114.676 148.012 115.179 147.51Z" fill="#080606"/>
<path d="M75.4737 99.7656C75.5566 99.7656 75.6396 99.7656 75.725 99.7656C75.8004 100.812 75.5876 101.437 75.0968 102.357C74.9802 102.579 74.8635 102.801 74.7434 103.03C74.6527 103.196 74.562 103.363 74.4685 103.535C74.3027 103.535 74.1368 103.535 73.9659 103.535C74.378 102.22 74.8177 100.984 75.4737 99.7656Z" fill="#E3B3B5"/>
</g>
<defs>
<clipPath id="clip0_2671_3840">
<rect x="0.336182" width="257.327" height="257.327" rx="128.664" fill="white"/>
</clipPath>
</defs>
</svg>
