<svg width="44" height="52" viewBox="0 0 44 52" fill="none" xmlns="http://www.w3.org/2000/svg">
<path d="M19.8286 30.2548C25.1376 30.2548 29.4232 25.7774 29.4232 20.2126C29.4232 14.8396 20.6602 4.54149 20.2764 4.09375C20.1485 3.96582 19.9566 3.83789 19.7647 3.83789C19.5728 3.83789 19.3809 3.90186 19.253 4.09375C18.8692 4.54149 10.1062 14.8396 10.1062 20.2126C10.1702 25.7774 14.5197 30.2548 19.8286 30.2548ZM19.8286 5.56491C21.6836 7.80362 28.1439 16.0549 28.1439 20.2765C28.1439 25.0738 24.434 29.0395 19.8286 29.0395C15.2233 29.0395 11.5134 25.1377 11.5134 20.2765C11.4494 15.991 17.9737 7.80362 19.8286 5.56491Z" fill="#E94D37"/>
<path d="M36.9069 26.9284C39.5934 26.9284 41.7042 24.6897 41.7042 21.9393C41.7042 19.3807 37.8024 14.7114 37.3546 14.1997C37.0988 13.9438 36.651 13.9438 36.3952 14.1997C35.9474 14.7114 32.0457 19.3168 32.0457 21.9393C32.0457 24.6897 34.2204 26.9284 36.9069 26.9284ZM36.9069 15.6069C38.1862 17.206 40.4249 20.3402 40.4249 21.9393C40.4249 23.9861 38.8258 25.6491 36.9069 25.6491C34.988 25.6491 33.3889 23.9861 33.3889 21.9393C33.3249 20.3402 35.5637 17.2699 36.9069 15.6069Z" fill="#E94D37"/>
<path d="M32.1736 10.6819C34.3483 10.6819 36.2033 8.82695 36.2033 6.52427C36.2033 4.41347 33.0691 0.639634 32.6853 0.255853C32.5574 0.127927 32.3655 0 32.1736 0C31.9817 0 31.7898 0.0639631 31.6619 0.255853C31.2781 0.703597 28.1439 4.41347 28.1439 6.52427C28.1439 8.82695 29.9349 10.6819 32.1736 10.6819ZM32.1736 1.66305C33.3889 3.19817 34.924 5.43689 34.924 6.52427C34.924 8.12335 33.7087 9.40262 32.1736 9.40262C30.7024 9.40262 29.4231 8.12335 29.4231 6.52427C29.4231 5.43689 30.9583 3.19817 32.1736 1.66305Z" fill="#E94D37"/>
<path d="M19.8286 26.6087C20.2124 26.6087 20.4683 26.3529 20.4683 25.9691C20.4683 25.5853 20.2124 25.3295 19.8286 25.3295C17.2061 25.3295 15.0954 23.0268 15.0954 20.2124C15.0954 19.8286 14.8395 19.5728 14.4557 19.5728C14.0719 19.5728 13.8161 19.8286 13.8161 20.2124C13.8161 23.7304 16.5025 26.6087 19.8286 26.6087Z" fill="#E94D37"/>
<path d="M43.8789 28.3996C43.687 28.0797 43.3032 28.0158 42.9834 28.2716L19.8926 44.5183L3.70991 30.2545H10.8098C11.1936 30.2545 11.4495 29.9986 11.4495 29.6149C11.4495 29.2311 11.1936 28.9752 10.8098 28.9752H2.04686C1.9829 28.9752 1.9829 28.9752 1.91894 28.9752C1.85497 28.9752 1.85497 28.9752 1.79101 28.9752C1.72705 28.9752 1.72705 29.0392 1.72705 29.0392C1.66308 29.0392 1.66308 29.1031 1.59912 29.1031C1.59912 29.1031 1.59912 29.1671 1.53516 29.1671C1.53516 29.2311 1.47119 29.2311 1.47119 29.295C1.47119 29.359 1.47119 29.359 1.47119 29.423V29.4869V38.3139C1.47119 38.6977 1.72705 38.9535 2.11083 38.9535C2.49461 38.9535 2.75046 38.6977 2.75046 38.3139V31.086L19.5089 45.8616C19.6368 45.9895 19.7647 46.0535 19.9566 46.0535C20.0845 46.0535 20.2125 45.9895 20.3404 45.9255L43.8789 29.359C44.0068 29.1032 44.0708 28.6554 43.8789 28.3996Z" fill="#E94D37"/>
<path d="M38.9537 49.8916H0.639634C0.255854 49.8916 0 50.1475 0 50.5313C0 50.915 0.255854 51.1709 0.639634 51.1709H38.9537C39.3375 51.1709 39.5933 50.915 39.5933 50.5313C39.5933 50.1475 39.3375 49.8916 38.9537 49.8916Z" fill="#E94D37"/>
</svg>
