<svg width="43" height="44" viewBox="0 0 43 44" fill="none" xmlns="http://www.w3.org/2000/svg">
<path d="M0.86025 19.4642L13.3919 2.14341C13.6842 1.72916 14.0366 1.41847 14.4148 1.20272C14.8273 0.9697 15.2657 0.848875 15.7126 0.848875L19.8313 0.857149C19.9106 0.851028 19.9903 0.847674 20.0704 0.848875C20.6462 0.857508 21.2049 1.056 21.7206 1.4271C22.0214 1.64286 22.3051 1.92765 22.5543 2.28149L29.1655 11.415L39.5039 1.03874C39.7532 0.788463 40.1658 0.788463 40.415 1.03874C40.6643 1.28902 40.6643 1.70327 40.415 1.95354L20.0314 22.4119L37.1747 39.6503L37.209 39.6848C37.4669 39.9351 37.4669 40.3407 37.209 40.5996L36.616 41.1951L41.4636 42.4551L40.2087 37.5877L39.6157 38.1831C39.3578 38.442 38.9538 38.442 38.696 38.1831L23.4568 22.8818C23.2076 22.6315 23.2076 22.2173 23.4568 21.967L41.902 3.44657C42.1512 3.19629 42.5638 3.19629 42.8131 3.44657C43.0623 3.69684 43.0623 4.11109 42.8131 4.36137L31.949 15.2698L34.8883 19.3348C35.5072 20.1892 35.8252 21.2852 35.851 22.3726C35.8682 23.4686 35.5846 24.556 34.9829 25.3845L31.9521 29.5777L39.1601 36.8109L40.097 35.8702C40.3463 35.62 40.7588 35.62 41.0081 35.8702C41.1026 35.9652 41.1628 36.0946 41.1886 36.2155L42.9764 43.1887C43.0709 43.5339 42.8646 43.8877 42.5208 43.974C42.4091 44.0085 42.2973 43.9999 42.1856 43.974L35.1978 42.1617C34.854 42.0754 34.6477 41.7215 34.7422 41.3763C34.768 41.2641 34.8282 41.1606 34.9055 41.0829L35.851 40.1336L29.1706 33.4192L22.4598 42.7054C22.2363 43.0161 21.9871 43.2663 21.712 43.4648C21.2185 43.8236 20.6576 44.0042 20.0878 43.9994C20.0848 43.9995 20.0819 43.9999 20.0789 43.9999H15.8501C15.3688 43.9999 14.8789 43.8704 14.4234 43.6115C14.0108 43.3785 13.624 43.0333 13.2888 42.5673L0.963387 25.514C0.344542 24.6596 0.0179227 23.5636 0.000736618 22.4762C-0.0164547 21.3801 0.267184 20.2927 0.86025 19.4642ZM33.9429 24.6251C34.3726 24.0296 34.5789 23.2184 34.5617 22.3985C34.5445 21.5614 34.3039 20.7242 33.8483 20.0856L31.0287 16.1938L24.8236 22.4243L31.0311 28.6535L33.9429 24.6251ZM21.4198 41.9459L28.2502 32.4941L18.6694 22.8645C18.6538 22.8489 18.6392 22.8326 18.6255 22.8159C18.4211 22.5641 18.4357 22.1924 18.6694 21.9497L28.2449 12.339L21.5143 3.03232C21.3424 2.79931 21.1619 2.60944 20.9642 2.47135C20.672 2.2556 20.354 2.14341 20.0532 2.14341C19.7609 2.13478 19.4601 2.22971 19.1851 2.4282C19.0217 2.54903 18.867 2.70437 18.7295 2.90286L6.19782 20.2237C5.76806 20.8192 5.57038 21.6304 5.57897 22.4503C5.59616 23.2874 5.83682 24.1245 6.30096 24.7632L18.635 41.8165C18.7983 42.0495 18.9874 42.2393 19.1851 42.3774C19.4773 42.5932 19.7867 42.7054 20.0875 42.7054C20.3884 42.714 20.6892 42.6191 20.9557 42.4206C21.119 42.2997 21.2737 42.1444 21.4198 41.9459ZM2.0034 24.7632L14.3374 41.8165C14.5523 42.1185 14.8015 42.3429 15.0594 42.4896C15.3173 42.6363 15.5837 42.7054 15.8501 42.7054H17.6913C17.6559 42.6605 17.6209 42.6146 17.5864 42.5673L5.26095 25.514C4.6421 24.6596 4.31549 23.5636 4.2983 22.4762C4.28111 21.3801 4.56475 20.2927 5.15781 19.4642L17.6895 2.14341H15.7126C15.4892 2.14341 15.2657 2.20382 15.0508 2.32464C14.8273 2.44546 14.621 2.64396 14.4319 2.90286L1.90026 20.2237C1.4705 20.8192 1.27281 21.6304 1.28141 22.4503C1.2986 23.2874 1.53926 24.1245 2.0034 24.7632Z" fill="#E94D37"/>
</svg>
