<svg width="37" height="54" viewBox="0 0 37 54" fill="none" xmlns="http://www.w3.org/2000/svg">
<path fill-rule="evenodd" clip-rule="evenodd" d="M19.0311 49.6169C19.2771 48.8924 23.0536 46.4141 23.8834 45.9399C24.1874 45.7663 25.0813 44.7746 25.376 44.4105L25.6644 44.0061C25.6869 43.9785 25.7193 43.9382 25.7429 43.9105C26.2108 43.359 26.0893 43.6754 26.4151 43.0094C26.7534 42.3189 26.8699 41.9139 27.1664 41.2838C27.3913 40.804 28.6254 38.2564 28.7188 37.7339L27.5221 38.808L25.7311 42.839C25.1791 43.7389 24.5169 44.2797 23.8092 44.9683C21.7516 46.9706 22.4318 45.6883 21.2794 46.6631C20.9236 46.9637 20.6134 47.3567 20.1742 47.6925L17.8119 49.6584C16.9018 50.3136 17.1111 49.7527 15.8222 50.8431C15.2877 51.2959 11.3056 51.9248 10.4491 52.7373C12.4706 52.5731 15.9991 51.4506 17.6051 50.5689C18.6262 50.0086 18.4673 50.2608 19.2871 50.0558L23.7607 47.6573C24.5126 47.0939 24.6391 47.2102 25.0932 46.6316C26.0002 45.4758 24.4603 47.2184 25.3162 46.3329L26.2133 45.6481C27.7994 44.4174 26.3435 45.0828 28.745 42.5553C29.6371 41.6171 30.9204 38.2558 30.9024 37.8188L30.0882 38.4929C30.0863 38.4954 29.3431 40.6725 28.8516 41.4152C28.3239 42.2126 28.2224 42.3353 27.4119 42.9779C26.7752 43.4829 26.8493 43.6445 26.2793 44.2967C25.0888 45.6588 23.9644 46.2015 22.6399 47.1637C21.7902 47.7806 20.0876 49.1993 19.0311 49.6169ZM32.4828 47.2756C32.5133 47.285 32.5576 47.319 32.5694 47.3196C32.5812 47.3203 32.6522 47.3272 32.6641 47.3278C32.6784 47.3278 32.7625 47.3228 32.7681 47.2844C32.7743 47.2391 32.8398 47.2303 32.8778 47.2058L32.4828 47.2756ZM16.5541 1.48877C17.3796 2.10757 15.9984 1.78496 16.8176 1.69252C17.2095 1.64787 16.9236 1.71705 17.093 1.44664L16.5541 1.48877ZM36.2331 38.0244C36.2917 37.9401 36.2468 37.8508 36.2356 37.7276L35.8531 38.369L36.2331 38.0244ZM35.2158 44.5646C34.5 44.6275 34.9093 44.503 34.7978 44.9734L35.2158 44.5646ZM36.7601 24.4403C36.7707 24.4869 36.9938 24.7397 37 24.3573C37.0031 24.1737 36.6387 23.8838 36.7601 24.4403ZM4.40505 9.63631C4.45987 9.92244 4.85421 10.0174 4.67916 9.62499C4.51158 9.25144 4.38138 9.5118 4.40505 9.63631ZM14.2473 1.32148C14.2479 1.54724 14.1937 1.56799 14.3133 1.61956C14.9805 1.90695 14.5557 1.4963 14.6061 1.40952L14.2473 1.32148C14.3071 1.20325 13.9844 0.954221 15.112 1.15357C16.0751 1.32336 17.341 0.841027 18.3165 0.605201C17.3771 0.151162 18.2835 0.800149 16.9061 0.537284C16.0639 0.376296 15.9461 0.558038 15.4241 0.873727C15.3973 0.851717 15.3387 0.796375 15.3338 0.822787L15.0241 0.598913L13.4848 0.925923C13.4237 0.947933 13.2518 1.02528 13.2057 1.04729L12.9914 1.18375C13.0325 1.20262 13.0886 1.18501 13.1185 1.23406C13.1484 1.28374 13.2175 1.27054 13.2487 1.27494L14.2473 1.32148ZM5.4049 46.5971C4.98065 46.3122 5.50146 46.3839 4.93892 46.3845C4.39818 46.3845 4.66169 46.6291 4.66792 46.7134L5.4049 46.5971ZM9.34143 3.42693C9.62239 3.56905 9.07169 3.63445 9.70462 3.52817C10.1719 3.44957 9.75072 3.55459 10.0491 3.35901C9.93637 3.28732 10.0466 2.75215 9.34143 3.42693ZM34.7448 43.4943C34.9018 43.9791 35.2743 43.3301 35.3373 43.2125C34.7535 42.9786 34.9411 43.1314 34.7448 43.4943ZM2.1461 38.0577C1.95049 38.3351 1.95174 37.7402 1.98226 38.5489L2.6233 38.1527C2.97341 38.0911 2.96282 38.198 2.80147 37.9093C3.34407 37.4364 2.85941 37.7112 3.57893 36.6585C3.98636 36.0617 5.19927 33.5324 5.22232 33.4136C5.39115 32.5514 5.04291 32.7772 5.03855 32.7703L2.31555 37.288L2.51802 37.5251L2.1461 38.0577ZM3.77268 38.7658C3.02387 38.9356 3.27555 38.9589 2.63327 39.7997C2.58904 39.8575 2.65071 40.2858 2.44638 40.05C2.41834 40.0179 2.38097 40.1437 2.34982 40.1921L3.77268 38.7658C4.95756 38.4193 4.67723 37.6414 5.10957 36.9912C6.32685 35.1618 5.82661 35.2995 6.56669 33.1457C6.75794 32.5898 6.63833 33.3224 6.67571 32.7344C6.73365 31.8207 6.43462 32.2659 7.13484 31.1453C7.33108 30.8321 7.69987 30.2579 7.81574 29.9404C7.96463 29.5297 8.12287 28.8738 8.12473 28.5783C8.67855 28.2255 8.4574 28.4946 8.71905 27.8525C8.99502 27.174 8.93023 27.811 8.91217 27.0514C10.0341 26.0546 9.57812 24.8371 10.4957 24.263C10.7512 23.9819 10.9349 23.5769 11.0957 23.148C11.5579 22.9568 11.9622 22.4745 12.4213 22.0066C13.5732 20.8307 15.7006 19.3434 17.5216 19.4623C19.3276 19.5798 21.1666 20.5219 22.2437 21.7758C22.7377 22.3513 22.5165 22.477 23.2828 22.8877C23.3488 23.0417 23.4778 23.4008 23.5656 23.5505C23.8615 24.053 23.7787 23.7932 23.907 23.8781C24.6004 25.5849 25.2894 25.905 25.7996 27.8551C26.721 31.3786 25.974 32.032 25.7765 34.5323C25.3143 40.3719 21.369 45.6261 16.6837 48.8547C15.4178 49.7275 13.4704 50.6016 13.3408 50.9526L18.1246 48.8264C18.4479 48.5836 18.6977 48.278 19.0665 47.9699C20.9105 46.4304 20.8588 47.0184 21.5933 45.6733C22.9831 45.5663 22.6206 45.7858 23.527 44.7645C25.1978 42.8817 26.222 41.1259 27.0835 38.7948C27.8398 36.7497 28.1002 32.7124 27.9102 30.7711C27.866 30.319 27.7725 30.0303 27.7987 29.609C27.8398 28.9606 27.9769 29.0908 27.9756 28.2877C27.6523 26.9294 27.2224 24.7843 26.2413 24.2146C26.1235 23.7568 26.1833 23.8348 25.8438 23.2952C25.5379 22.8085 25.5641 22.9254 25.351 22.3469C24.6602 21.8425 24.6496 21.1671 23.884 20.7898C23.1943 18.9246 19.6926 18.0335 17.8654 17.9065C14.9151 17.7021 12.8605 19.0793 10.814 20.42C10.5997 20.6653 10.4353 20.837 10.2328 21.0565C9.1258 22.2526 7.09244 24.497 6.62085 25.8081L6.56665 26.1263C6.14552 26.498 6.08447 26.7728 5.87017 27.3652C5.21917 29.1625 4.67656 29.2738 4.09783 31.2635C3.90782 31.9176 3.07803 33.2187 2.76468 33.8079C2.48683 34.3318 2.40834 34.8468 2.22581 35.2706C1.9841 35.8322 1.72681 35.8517 1.38542 36.3554C2.40335 36.0901 2.61641 35.6662 3.2481 34.3035C4.48158 31.644 3.91031 34.0588 5.50761 30.6045C5.74496 30.0913 5.8708 30.0178 5.98355 29.5499C5.98854 29.5279 5.99103 29.475 5.99664 29.453C6.08759 29.087 5.9169 29.3889 6.28196 28.8921C7.12296 27.7476 6.7118 27.8192 6.99339 26.8244L7.31795 26.8508C7.25067 25.9723 7.38087 26.4433 7.59455 25.678C8.40441 25.3711 7.67678 25.6415 8.22001 24.7875C8.88098 23.7492 9.23358 23.8323 9.60986 23.043C9.8254 22.5909 9.96806 22.4022 10.0902 22.1456C11.0608 21.601 11.3261 20.6376 12.4406 20.0578C15.3742 18.5322 17.3191 17.5751 20.5099 19.0982L21.8562 19.6629C22.3078 20.0314 22.5458 20.498 23.1283 20.9332C23.6522 21.3237 23.279 20.8709 23.7432 21.5872C23.9207 21.8614 23.9269 22.0186 24.221 22.189C24.7617 23.3505 26.0724 24.7246 26.4524 26.0861L27.0947 28.0859C27.02 29.0933 27.4249 31.7226 27.4006 32.0389C27.3209 33.0753 26.8181 36.8969 26.5434 37.654C26.2874 38.3609 26.0917 38.8992 25.8363 39.728C25.3978 41.1511 23.7488 43.781 22.362 44.835C22.823 43.7987 23.1326 43.393 23.7874 42.5246L25.148 40.3016C25.5784 39.4595 26.5185 36.0209 26.5907 35.1015C26.6773 34.0041 26.7621 33.0539 26.8399 32.0924C26.9539 30.6799 26.7621 27.4413 26.0886 26.1591C25.9366 25.8692 24.9112 24.1637 24.7025 24.0618C24.3954 23.3386 24.3356 22.967 23.669 22.6978C23.2722 21.0131 20.1137 19.2623 18.1477 19.0278C16.4102 18.8202 15.5611 19.317 14.1227 19.8572C13.1403 20.2257 13.3028 20.4188 12.7341 20.8521C12.0912 21.3413 11.885 21.2357 11.424 21.8576C10.654 22.4142 9.80177 23.5744 9.48468 24.341C9.08224 24.563 9.43359 24.1807 9.02617 24.7529C9.01371 24.7705 8.79443 25.1699 8.78446 25.1894C8.60505 25.5352 8.49353 25.8195 8.29605 26.161L7.58712 27.7256C7.27314 28.0494 7.63259 27.508 7.5161 27.9268L5.83221 31.5899C5.19678 32.6785 6.19354 32.7269 4.86973 36.0605C4.54329 36.8824 3.62877 37.893 3.77268 38.7658ZM7.63819 49.498C6.61528 49.5301 7.04637 49.6383 6.91368 49.803C6.92303 49.8068 6.95854 50.0565 7.42888 49.8521C7.95653 49.6219 7.5136 49.9263 7.63819 49.498ZM33.5699 12.9586C34.0122 13.6094 33.5674 13.4887 34.4072 13.5736C34.0359 12.9976 34.5648 13.4906 33.9972 13.0793C33.6907 12.8573 33.8477 13.0101 33.5699 12.9586ZM11.6707 53.5435C12.2195 53.7888 12.2102 53.6938 12.5952 53.3869C12.1603 53.1014 12.0544 53.1706 11.6707 53.5435ZM2.9161 13.8151C3.52785 13.5402 3.54032 13.6836 3.83062 13.034C3.32975 13.2095 2.93416 13.2881 2.9161 13.8151ZM9.23986 49.5728C9.74883 49.9149 9.63047 49.7527 10.1189 49.4496C10.0497 49.4131 9.93385 48.7987 9.23986 49.5728ZM17.6312 3.23194L19.555 3.22943C19.2136 3.03134 18.5078 2.95965 18.0268 3.02693C17.217 3.14013 17.8798 2.99738 17.6312 3.23194ZM6.85703 13.6585C6.97726 13.7119 6.53807 14.0226 7.38593 13.7427C8.02447 13.5321 7.79148 13.3717 7.86375 13.2277C7.3174 13.1755 7.14609 13.1403 6.85703 13.6585ZM2.80774 41.6133C3.27372 41.3907 4.05804 40.9467 3.98017 40.4876L3.76462 40.4902C3.26687 40.6807 2.86754 41.2083 2.80774 41.6133ZM16.9447 31.2169C17.341 30.7604 17.5901 30.3189 17.273 29.6366C16.8538 29.9466 16.8887 29.663 16.7797 30.4309C16.7199 30.8528 16.6744 30.895 16.9447 31.2169ZM1.76923 15.918C1.77484 15.9205 1.90629 16.5871 2.837 15.6582L3.53037 14.7508C2.77346 14.9872 2.35794 15.5375 1.76923 15.918ZM0 29.3222C0.59556 29.0907 0.142037 29.3951 0.534507 29.0411C0.811105 28.792 1.10203 28.1135 1.14502 27.8406L0.648509 27.5783L0 29.3222ZM24.5406 16.3292C21.4326 14.4684 19.7954 13.915 15.9642 14.1986C14.6802 14.2936 13.4243 14.6621 12.1454 15.2872C11.5286 15.589 9.74756 16.804 9.29965 17.2059L6.64954 19.4239C5.73066 20.2961 4.72643 20.8281 3.98386 21.4739C2.79337 22.5103 1.2347 25.7653 0.787406 27.1438L1.27395 27.5104C1.68448 26.8627 1.97292 26.2848 2.23269 25.5402C2.56661 24.5799 3.7652 22.9153 4.44984 22.111C5.2597 21.1595 6.78099 20.1647 7.66 19.3811C8.24247 18.8617 8.51346 18.5164 9.14266 18.0052C9.95065 17.348 11.7074 16.0871 12.6444 15.6419C14.2441 14.8803 15.6558 14.4496 17.5571 14.4917C20.5106 14.5577 19.4976 14.7703 21.8089 15.4992C22.8716 15.8343 22.8779 15.9526 23.6634 16.5078C24.8016 17.3128 25.7647 17.8618 26.7945 18.9133C28.8509 21.0137 31.0026 26.5885 31.5882 29.414C32.2803 32.7532 32.0025 34.6166 31.2892 37.6703C31.1783 38.1438 31.2593 38.2897 31.1658 38.8129C31.0288 39.5827 30.6457 40.1122 30.4133 40.8561C29.9797 42.2459 28.9954 43.2093 28.0635 44.1948C27.4685 44.8236 27.7825 45.1764 26.954 45.8405C23.4099 48.683 21.7958 48.8729 19.5469 50.3652L20.4701 51.255L19.0398 50.5544L15.9748 51.9876C15.2017 52.3404 13.5047 52.6247 13.0225 53.1837C14.6466 53.2711 14.6453 53.1812 16.0738 52.6379C16.8407 52.3461 16.8108 52.5593 17.4861 52.1624C18.076 51.8153 18.4909 51.6524 19.2678 51.5229L18.3713 52.4888C20.4296 52.1524 19.7823 51.7468 20.4564 51.609L22.6548 51.582C23.897 51.394 24.4453 50.6368 25.4657 50.1054C25.8725 49.8935 25.9535 49.8621 26.2886 49.6042C27.9146 48.3572 30.0383 47.8214 31.6873 46.6197C32.8603 45.765 31.9377 46.1122 33.2939 45.9814C33.9673 45.9166 34.3168 45.4317 34.5959 44.9708L32.8423 45.6091C33.3762 45.0236 34.0689 44.5834 34.3094 43.825C33.5275 44.3526 32.7314 44.8739 32.0804 45.5298C31.415 46.2002 28.9493 47.7277 28.0815 47.5133C29.5137 46.5561 30.9223 45.7663 32.0891 44.4677C32.4261 44.0929 32.5763 44.0784 32.8155 43.6363C33.6764 42.0434 35.5335 40.6945 36.2075 39.0456L32.9307 42.4949C31.6835 44.0721 31.0369 44.718 29.358 45.8688C28.2186 46.6498 28.2759 46.458 27.3165 47.451C26.7677 48.0189 25.8843 48.3962 25.2103 48.8446C24.2067 49.5124 21.4606 51.15 20.6271 50.9588L21.2108 50.535C21.3068 50.4834 21.6064 50.3658 21.7179 50.3237C24.2185 49.3684 24.0354 49.0835 25.5074 48.1384C26.0824 47.7698 26.6624 47.4064 27.1377 46.8756C28.2697 45.6135 28.4703 46.0694 29.6053 44.9884C30.4183 44.2149 31.1254 43.6489 31.7384 42.8603L32.3856 42.1057C33.0036 41.3699 33.1058 41.363 33.3357 40.3467C33.5219 39.5248 33.839 39.2676 34.0807 38.3036C34.3125 37.3804 35.6519 35.2026 35.6051 32.0853C35.5927 31.2867 34.6576 27.7336 34.333 27.0809C33.2179 24.8408 31.5172 19.9766 30.5005 18.566C30.0676 17.9655 29.5517 17.585 29.1213 17.0882C28.2111 16.0386 28.5631 16.6266 27.5433 15.9022C24.1874 13.5182 19.1357 12.8057 14.9201 13.3207C13.0481 13.5496 12.0426 14.3023 10.5475 15.0677C9.66036 15.5223 4.6598 19.0811 4.23304 20.3526C4.46541 20.4224 4.00628 20.5941 4.76069 20.3489C5.27776 20.181 5.24972 19.9376 5.71633 19.5219C9.25666 16.3713 11.9105 13.7458 17.1596 13.5232C19.4658 13.4257 20.8663 13.7936 22.8455 14.4463C23.3594 14.6155 23.9699 14.6476 24.5088 14.8626C26.2693 15.5663 27.5196 16.2342 28.7961 17.5617C29.4427 18.2346 29.3891 17.9793 29.8651 18.8018C31.1827 21.0808 31.9956 23.8176 33.0304 26.1401C34.3393 29.0768 35.2388 30.5251 34.7267 33.894C34.5934 34.77 34.3069 35.4869 34.3125 36.266C34.3162 36.6911 34.3629 36.549 34.1243 36.9402C33.9842 37.1697 34.0869 36.9414 33.9256 37.2722C32.8435 39.4921 33.1201 41.0146 30.6307 43.1339C30.0744 43.6074 28.7568 45.3147 28.1575 45.1846C28.7076 44.323 29.2932 43.6118 30.0738 42.8905C30.6008 42.4037 30.3641 42.0836 31.1011 41.6554C32.0928 41.0794 32.0013 40.9441 32.4728 39.8933C32.6311 39.5412 32.8018 39.2481 32.9008 38.7909C33.0615 38.0495 33.1232 38.0828 32.5513 37.8332C32.319 38.5677 31.8735 41.1391 30.9858 41.1825L30.964 40.7876C31.1198 40.2021 31.5845 39.3676 31.9284 37.9772C32.5694 35.385 33.4279 33.1953 32.6896 30.3107C32.4859 29.5152 32.18 29.1253 32.0318 28.4675C31.81 27.4783 31.838 27.3764 31.4481 26.4633C29.4801 21.8506 28.8061 18.8837 24.5406 16.3292ZM23.4199 36.012C23.7806 35.8277 23.6578 35.9189 23.851 35.5812C24.6664 34.1524 23.9855 34.126 23.9699 34.1065C23.218 35.3353 23.0498 35.3863 23.4199 36.012ZM28.0778 27.0331L28.5232 28.5562C28.0828 30.2283 28.4908 31.7238 28.3731 33.5003C28.1569 36.7566 27.4199 37.6282 28.8602 37.3244C28.8316 35.4913 28.8366 36.5968 29.0073 35.1435L29.049 31.0773C29.0509 30.3384 28.7749 29.4573 28.8939 28.8895C30.0034 30.9188 29.4627 34.1348 29.2751 36.2949C29.1431 37.8212 29.728 36.8377 29.1848 38.0048C28.973 38.4601 28.6964 39.0626 28.4983 39.5003C28.2391 40.0706 27.2094 41.8352 27.263 42.3886C28.4672 41.512 27.6037 42.2352 28.4161 41.1114C28.6746 40.753 30.0414 37.4848 30.0626 37.2703C30.1255 36.6239 29.9455 35.2573 30.2295 33.9065C30.8394 31.0106 29.4838 28.9008 29.3368 28.0487L28.9742 26.8796C28.6316 25.9741 28.0398 24.0761 27.4991 23.529L26.1578 21.1085L25.9641 20.9205C25.5604 20.3218 25.2315 19.959 24.7406 19.493C24.3306 19.1037 23.8098 18.5887 23.2436 18.5164L22.4904 17.9699C21.7204 17.4989 21.052 17.3794 20.092 17.1857C18.8143 16.4889 15.9075 16.8115 14.4167 17.0612C13.2754 17.2524 13.709 17.7221 13.0898 17.0297L12.9558 17.4083C12.7976 17.7573 13.096 17.6026 12.0837 18.1064C9.15699 19.5622 5.14819 24.2598 3.939 27.5154C3.45495 28.8197 2.97028 30.2642 2.3361 31.3791C1.97602 32.0118 1.37112 33.7783 1.18361 34.5159L1.10636 34.7561C1.01603 35.0372 0.935666 34.9467 0.918223 35.3592C1.77107 34.3273 1.30758 34.9523 1.81592 33.8889C2.3878 32.6922 2.29934 33.445 2.95595 31.5332L4.09723 29.2901C4.59623 28.5097 4.41868 28.2304 4.78437 27.65C5.89387 25.8885 5.69079 25.7099 7.43884 23.3222C7.89485 22.6996 8.07302 22.5021 8.46486 21.9242C8.82183 21.3985 9.21803 21.1142 9.73323 20.7011L12.0177 18.695C12.3615 18.3787 12.3796 18.5365 13.0935 18.2315C17.369 16.4053 17.0961 17.8102 19.8938 17.3429C20.4327 17.8404 20.6364 17.6762 21.2637 18.0026C22.9956 18.9038 23.3002 19.01 24.6128 20.3961C24.8745 20.7143 25.399 21.5488 25.7803 21.9154C26.045 22.6317 26.5353 23.353 26.9421 24.09C27.1302 24.4308 27.291 24.6755 27.4598 25.0798C27.6828 25.6169 27.6355 25.7961 27.9613 26.0879L28.0778 27.0331ZM33.5263 43.5533C34.5822 43.1351 35.374 41.5932 36.1577 40.8417C35.27 41.1919 34.7212 42.151 33.9985 42.7962C33.4017 43.3288 33.6129 42.6446 33.5263 43.5533ZM22.1777 34.8348C21.7983 35.3083 21.8301 35.7894 22.2699 36.1768C22.7658 35.7749 22.9234 34.8147 23.0299 34.3109C23.3146 34.0311 23.2249 34.2996 23.3314 33.8456C23.3788 33.6412 23.3271 33.6098 23.3308 33.4029C23.3389 32.9469 23.3769 32.7941 23.3931 32.3332C23.9002 30.5051 23.2305 25.7458 22.0051 24.0586C19.4204 20.4986 16.8239 21.6771 15.9056 20.8036C19.0292 20.7351 19.7693 20.6954 22.1359 23.5077C22.7545 24.5988 22.8754 24.5214 23.3202 26.025C23.717 27.3652 23.8566 27.64 23.7662 29.0216L23.8609 31.6936C23.8385 32.0948 23.9064 32.0426 23.7787 32.6526C23.5052 33.9588 23.8086 33.5752 23.8971 33.6821C24.3431 33.1532 24.568 32.7426 24.6253 32.3885C24.6284 32.369 24.6465 31.0842 24.6234 30.8453L24.4148 28.9612C24.5649 28.404 24.3481 27.7148 24.3269 26.8237C24.7206 26.8784 24.3811 26.6225 24.6521 26.9715L24.9729 30.0844C25.12 30.9566 24.9468 31.366 25.4015 31.9244C26.2749 31.5898 25.7168 31.0874 25.7778 29.9429C25.5317 29.1109 25.571 28.2053 25.3399 27.4614C24.6864 25.3522 24.5786 26.337 24.2702 26.276L24.0522 25.3478C23.6921 24.3806 23.4629 24.1083 22.8125 23.3455L22.3185 22.8889C21.878 21.3256 18.2741 19.5528 16.0003 20.3036C14.5494 20.7822 12.6257 22.5707 11.6694 23.5976C11.0888 24.2208 10.9785 24.1491 10.8758 24.9509C10.3319 25.3886 10.2279 25.9295 9.89458 26.581C9.55008 27.2557 9.45289 27.7135 9.21118 28.3801C8.78009 29.5687 7.67681 31.3213 7.6195 31.8741C7.57713 32.369 7.10928 33.6638 6.91118 34.1757C6.61278 34.9492 6.61403 35.651 6.2689 36.4466L5.97174 37.0037C5.40422 38.0917 5.69515 38.1898 4.61616 39.3789C4.5358 39.4676 4.00378 39.843 4.35016 40.3254C4.79122 40.1594 4.61554 40.2109 4.90958 39.8965L5.08526 39.7104C5.11329 39.6839 5.15316 39.6512 5.18182 39.6248C6.22342 38.6727 7.76278 35.4077 7.79392 34.6706C7.83068 33.8053 7.74222 34.5518 8.10416 33.6619C8.21754 33.384 8.17082 33.3557 8.2842 33.0237C8.38325 32.7325 8.65798 32.252 8.80625 31.8338C8.90779 30.9679 8.767 32.1043 9.43482 30.8119L9.72201 30.102C9.73696 30.0661 9.75503 30.0183 9.76998 29.9837L9.87962 29.7567C10.3873 28.7436 10.0385 29.4001 10.3406 28.5524L10.4378 28.3204C10.649 27.8324 10.7549 27.9487 10.6889 27.467C11.3081 26.8973 11.1505 26.6508 11.4987 25.8911L11.865 24.9446C12.1684 23.9831 12.7932 23.6253 13.5209 22.9398C14.2554 22.2475 14.56 21.3519 15.852 21.4651C17.8667 21.6412 19.5493 22.1588 20.7417 23.7203C21.8032 25.1107 22.7034 27.667 22.8299 29.5397C22.9028 30.6182 22.5427 31.4106 22.6486 32.562C22.4225 33.179 22.5396 33.3179 22.4904 33.7022C22.4237 34.2254 22.306 34.1726 22.1777 34.8348ZM27.3421 22.1651L28.0697 23.2782C28.4497 24.5617 29.1275 25.5767 29.4994 26.9665C30.7821 31.7584 30.731 29.6995 30.6762 34.5285C30.6482 36.9842 29.7368 37.5779 31.0039 37.3238L31.5664 33.9374C31.7178 32.0873 31.4356 30.0944 30.7273 28.3871C30.4669 27.7582 29.9723 24.917 29.0378 23.6574C28.8908 22.9694 28.8565 23.0417 28.5905 22.594C28.4834 22.4148 28.4167 22.267 28.3015 22.1148C28.1881 21.9651 28.0784 21.8966 27.985 21.8155C27.8423 20.6074 25.8077 18.717 25.0028 18.036C23.2822 16.5795 20.9473 15.9916 18.7557 15.7991C18.1994 15.7501 17.0575 15.7941 16.4526 15.8199C14.3164 15.9092 14.9002 16.516 14.4871 15.8815L20.3244 15.3551C16.2988 15.0571 15.7674 14.6018 12.6021 16.3626C9.3645 18.1643 4.26549 22.4626 2.847 26.1276C2.57289 26.8351 2.45142 27.0967 2.19662 27.796C1.84153 28.7701 1.60916 28.7235 0.825466 31.0604C0.275383 32.7017 0.685921 31.8635 0.470997 32.7294L1.09147 31.7094C2.20783 29.5008 1.76428 30.929 2.54735 28.6474C2.7685 28.0029 2.86382 28.1173 3.07874 27.6645C4.111 25.4912 3.52852 25.7603 5.50271 23.1612L5.9201 22.6971C5.94564 22.6701 5.98302 22.6349 6.00856 22.6085L6.17676 22.4242C6.20106 22.3972 6.23283 22.3569 6.25713 22.3293C6.94364 21.5394 9.27105 19.3749 9.98123 18.9045C10.3345 18.6705 10.5656 18.4794 10.9057 18.1976C14.0505 15.5916 14.2168 16.5462 15.3357 16.384C17.0856 16.1293 18.9034 16.0595 20.472 16.555C23.6716 17.5669 24.3326 18.0322 26.0731 20.1735C26.8157 21.086 26.7708 21.0099 27.3421 22.1651ZM3.71728 14.7451C4.50907 14.4332 5.36876 13.4402 6.01665 13.2113C6.56113 13.0195 8.1958 12.1932 8.61568 11.7467C8.04504 11.4348 8.055 11.8429 7.29872 12.1404C6.03846 12.6359 5.73569 12.8573 4.72462 13.6503C4.11037 14.1314 3.86056 14.0056 3.71728 14.7451ZM1.30639 18.346C2.24334 17.9385 3.3354 16.8367 3.95588 16.1437C4.42061 15.6249 6.43404 14.6357 6.70254 14.0421C5.14263 15.0225 3.74594 15.8174 2.35485 16.9751C1.19426 17.9417 1.32009 17.8347 1.30639 18.346ZM20.6203 35.3216C20.3194 36.2133 19.3295 37.4735 19.6565 38.4275C20.2309 37.6678 21.493 36.2579 21.4874 35.4668C21.6021 35.2404 21.503 35.5517 21.6189 35.087L21.8307 34.2978C22.035 33.7437 22.0014 33.7758 22.0132 33.0847C22.5272 32.264 22.6947 28.4437 22.1085 27.3948C21.4314 29.9196 21.8002 30.4523 21.1803 33.53C20.9286 34.006 20.8121 34.6983 20.6203 35.3216ZM9.43922 51.7235C10.1369 52.0204 9.76005 51.7889 10.9443 51.528C11.8227 51.3349 10.9163 51.3481 11.7 51.2255C12.0208 51.1745 11.9791 51.46 12.5447 51.0947C13.4156 50.5325 11.9554 50.584 13.9701 49.9539C14.6908 49.7288 15.1886 49.5181 14.9787 48.8176L12.3971 50.3734C11.5847 50.9098 10.1612 51.2664 9.43922 51.7235ZM24.9922 1.78619C24.9511 1.75789 24.8851 1.65916 24.8726 1.69563L23.2517 1.11582C21.6531 0.773094 23.4765 0.961753 20.4246 0.653611L18.6984 0.551734C19.013 1.18688 18.7233 0.997597 19.9948 1.06928C22.3795 1.20449 22.3664 1.695 23.1464 1.7145C23.7793 1.72959 24.3443 1.75034 24.9922 1.78619ZM32.1888 20.0043C31.7141 19.266 32.2156 19.661 31.5596 19.6345C31.8598 21.0224 32.7532 22.094 33.074 22.8304C34.1032 25.1912 35.9696 28.6078 36.3147 31.11C36.4293 31.942 36.1901 32.3048 36.3589 32.7828L35.0357 25.8376L32.1888 20.0043ZM26.0071 7.46041C30.5186 8.93006 29.6172 9.20802 32.8547 10.5984L32.5221 10.0463L29.5885 8.23454C28.9238 7.88112 26.8917 7.05605 26.2008 7.10447L26.0071 7.46041ZM33.6266 40.8109C34.4807 40.6951 34.029 40.7253 34.3772 40.0342C34.6158 39.5607 34.6756 39.7801 34.9336 39.2079L36.2904 35.3404C36.585 34.387 36.7944 33.6883 36.3352 33.1695C35.8923 33.9688 36.1888 34.3902 35.8562 35.3133C35.0899 37.4389 35.5061 36.3044 34.695 38.1325C34.5056 38.5602 34.5498 38.7224 34.3667 39.1142C34.0714 39.7456 33.7119 39.9455 33.6266 40.8109ZM19.6945 34.1902L19.2104 35.6636C18.8796 35.9278 19.1344 35.6599 18.8342 36.1227C18.461 36.6969 18.3445 37.1559 18.1134 37.7439C17.7122 38.7646 16.4189 40.37 15.6377 41.5882C15.2932 42.1258 14.8453 42.3151 14.1501 43.2634C12.3621 45.7028 8.87287 47.1781 6.36355 48.5006C6.32742 48.5201 6.26762 48.5541 6.23834 48.5698L5.99662 48.7176C9.02487 47.6498 10.6209 47.2064 13.2274 45.328C13.5881 45.0677 13.4654 45.14 13.7133 44.9255C13.742 44.901 13.7793 44.8664 13.808 44.8419L14.4665 44.2445C16.3628 42.3698 15.5237 43.1081 16.9652 41.3253C17.5321 40.6254 17.3508 40.5562 17.6567 40.1399C18.5438 38.9325 17.9968 39.4192 18.5077 38.769C19.1375 37.9672 18.7319 38.6583 19.0578 37.81C19.4502 36.7899 19.8888 36.3409 19.8981 35.5574C20.1585 35.2392 19.9467 35.6001 20.1866 35.1021C20.2053 35.0637 20.2937 34.8323 20.3205 34.76C20.5217 34.2135 20.4844 34.255 20.5199 33.7029C20.8544 33.0834 20.7884 33.6632 20.9385 32.9111C20.9964 32.6218 20.9996 32.2181 21.0756 31.8056C21.2195 31.0189 21.369 30.4026 21.3241 29.4467L21.2923 27.8676C21.5789 27.6142 21.6456 27.0935 21.6593 26.6973C21.4026 25.8886 21.2899 25.2044 20.7641 24.551C20.5161 24.2435 20.3859 24.0202 20.1311 23.7316C19.7885 23.343 19.7792 23.4014 19.3437 23.2518C19.1686 23.021 19.497 23.2392 19.0073 22.9682C18.9755 22.9506 18.6447 22.8216 18.5376 22.7795C15.9828 21.7651 15.3997 21.8765 14.0379 23.3021C13.808 23.5436 13.5788 23.7612 13.3389 24.0259L12.8947 24.7013C12.2693 25.3924 12.1546 25.5647 12.0406 26.2835C11.6127 26.7143 11.6201 26.9772 11.4582 27.5501C11.2825 28.1739 11.0046 28.3185 10.999 28.9857C10.4789 29.4366 10.7386 29.1687 10.5306 29.763C10.386 30.1749 10.4159 30.0328 10.2166 30.4573L8.70838 33.7802C8.47602 34.4499 8.44736 34.9555 8.21562 35.5511L7.46183 37.144C7.24566 37.6446 6.98837 38.1571 6.68561 38.7168C5.90503 40.1613 3.54585 42.2585 3.46486 42.6811C6.67315 40.7939 7.46931 38.8098 9.03046 35.6813C9.67959 34.3802 9.39926 34.6858 9.59176 34.294C9.74501 33.9808 10.1842 34.2305 10.0465 33.1004L10.5898 32.3911L10.7324 32.1703C10.895 31.9087 11.199 31.449 11.1616 31.2811L11.0115 30.9761L11.5915 30.6642L11.3753 30.0385C12.2805 29.536 11.556 30.075 11.8774 29.5197C11.9104 28.3204 11.9565 29.0568 12.212 28.7034C12.3017 28.5795 12.3758 28.5399 12.4387 28.2557C12.4954 27.9978 12.4531 28.0657 12.4207 27.8343C13.0698 27.2514 12.7652 26.9659 13.2411 26.2156C13.6685 25.5427 13.6529 25.3245 13.9314 24.5523C14.4453 24.0876 14.4814 23.9027 14.8253 23.4128C15.0072 23.1524 15.6121 22.6487 16.1504 22.6129C16.5808 22.5846 18.6211 23.3141 18.9519 23.426C19.5555 24.4913 20.4295 25.2887 20.6569 26.737C20.5267 27.2878 20.4819 27.2702 20.6906 27.8765L20.4819 29.7725C20.2993 31.51 20.1673 32.6237 19.6945 34.1902ZM18.6248 29.6297C18.6454 28.6065 18.456 27.6991 18.3538 26.6363C18.1969 25.0038 18.2361 24.5001 17.3945 24.5095L17.6262 29.0436C17.6013 30.0259 18.0922 30.7088 17.2443 31.6509C16.655 32.3061 16.3448 32.9023 15.9479 33.7588C15.5019 34.2342 15.3642 34.604 15.1132 35.2347C14.8571 35.4265 14.8771 35.5429 14.6079 35.9969C13.6473 37.62 9.54008 42.9968 8.43244 43.903C7.43694 44.7186 5.73934 45.85 5.5456 46.3612C7.21205 45.3179 9.12518 44.4451 10.2833 42.7924C10.7985 42.0579 11.0196 42.0585 11.5485 41.414C12.6624 40.0569 15.4801 36.8673 15.7585 35.2618C16.0626 34.9122 16.2557 34.6568 16.45 34.0902C16.9428 33.5494 17.007 32.5615 17.4804 32.1294C17.5801 32.8564 17.572 32.5464 17.3683 33.1086C17.1278 33.7746 17.1091 33.2828 17.1453 33.9645C16.5179 34.6877 16.9428 34.5204 16.3902 35.2977C16.374 35.3197 16.3248 35.4272 16.3049 35.3995C16.285 35.3712 16.2438 35.4662 16.2152 35.5014C16.0052 36.1366 15.0714 37.5653 14.6933 38.1854C12.8605 41.1926 9.26781 44.2376 9.09154 45.3557C9.76185 44.7903 11.8133 43.1345 12.2911 42.5434L13.6897 40.8115C14.2883 39.9431 15.1512 39.2683 15.5673 38.352C15.7336 37.9854 15.6869 37.9326 15.9037 37.5307C16.2538 36.8799 16.6052 36.5233 17.0213 35.5888C17.4113 35.026 17.5315 34.6939 17.7714 34.0066C18.0068 33.8928 17.9327 33.9406 18.0872 33.6261C18.3414 33.1092 18.623 30.029 18.6248 29.6297ZM14.4927 34.9291C14.9014 34.5644 14.502 35.1932 14.8739 34.5235C14.9774 34.3367 14.9624 34.2374 15.006 33.9833C15.1188 33.8934 15.2944 33.7487 15.368 33.6563C15.5461 33.4312 15.4745 33.4764 15.6072 33.2306C16.3828 31.7898 16.6226 32.5256 16.2196 30.522C16.4737 30.2711 16.404 30.4956 16.5996 29.9718L16.9154 28.0802C17.111 26.9985 16.6712 26.5376 16.8344 25.2515C16.9765 24.5982 16.8625 24.8063 17.159 24.2605L18.0399 24.158L18.7395 25.349C18.7438 25.3226 18.8074 25.4144 18.8435 25.4446L18.813 25.8131L19.0154 27.0275L19.0553 28.6153L19.0609 30.0385C19.1488 31.4565 18.5632 33.0237 18.451 34.116C17.9103 34.516 17.8854 34.9782 17.6069 35.602L15.6047 39.2884C13.9476 41.6686 14.2416 40.9568 12.9726 42.5774C10.1718 46.1556 9.36877 45.3456 8.60003 45.6877L5.73562 47.5164L6.39784 47.4781C6.42462 47.4718 6.98093 47.268 6.98654 47.2655C7.40517 47.1014 7.76151 46.9203 8.12221 46.7159C10.3406 45.4575 8.91774 46.4713 10.2758 45.8154C11.6831 45.1356 13.3221 43.2704 14.4186 42.0818C14.8484 41.6158 14.9518 41.7649 15.2502 41.3146L16.442 39.5827C17.7222 37.5446 17.1708 37.898 18.0611 36.6333C18.2953 36.3007 18.3638 36.1869 18.4679 35.7498C18.8678 35.297 18.9494 34.9316 19.1419 34.3317L19.2889 34.0129C19.3026 33.9821 19.3219 33.9305 19.3356 33.8978C19.355 33.8513 19.4117 33.7117 19.431 33.6632C19.4453 33.628 19.4658 33.5808 19.4796 33.545C19.7462 32.8583 20.0714 31.2547 19.9399 30.5799C19.9617 30.5409 19.9916 30.4887 20.0016 30.4598C20.0116 30.4309 20.044 30.3711 20.0546 30.3334C20.2377 29.6938 20.1499 29.1417 20.0091 28.5594L20.1225 26.8973C20.0085 26.1464 20.0882 25.9112 19.7051 25.388L19.1612 24.5409C18.7189 23.9077 18.5744 23.8328 17.8368 23.653C17.326 23.4794 17.245 23.6901 16.8706 23.9536C16.2526 24.3888 16.3205 24.1882 16.1816 24.8485C15.7598 25.2163 15.8296 25.5622 15.8819 26.3187C15.9212 26.8885 15.9791 27.3293 15.9878 27.8815C16.0021 28.8468 15.8371 29.919 15.5704 30.6673C15.3711 32.0395 15.7511 30.6151 15.0091 32.1917C14.8378 32.5558 14.7475 32.8061 14.6135 33.1243L14.3307 33.9204C14.0024 34.2003 14.1139 33.9965 13.9389 34.4562C13.5776 34.8851 13.3215 35.5442 12.992 36.068C12.5933 36.7013 12.3048 37.1553 11.9578 37.6068C11.2383 38.5426 10.5007 39.5091 9.80049 40.4751C9.44852 40.9612 8.90716 41.4479 8.55829 41.8718C8.14651 42.3724 7.83939 42.8333 7.27871 43.0949C5.28148 44.0275 6.47882 43.7169 4.98494 44.7903C4.27102 45.3035 4.54637 44.7495 4.36447 45.4173C7.38587 43.6691 8.22936 43.5408 10.4546 40.7864C11.8214 39.0953 13.7339 36.9572 14.4927 34.9291ZM4.26913 13.0554C9.37436 10.2865 9.47964 10.0916 15.4657 8.53957C14.7306 8.19999 13.1745 8.59995 12.3615 8.88985C11.7516 9.10744 11.452 9.35144 10.8994 9.49734C10.254 9.66776 9.83348 9.72561 9.19992 10.0149C7.7104 10.6947 6.52925 11.0682 5.22289 12.0429C4.47096 12.6039 4.26789 12.2096 4.26913 13.0554ZM5.75117 7.79689C5.82406 7.81764 10.444 6.27944 11.2862 6.01469C13.4729 5.32797 13.9114 5.4833 15.7965 5.40218C16.4936 5.37199 16.3609 5.37136 17.0082 4.87267C14.9375 4.43184 9.63475 5.61348 7.98514 6.56683C7.19584 7.02338 7.4606 6.77939 6.86628 7.01332C6.45512 7.17557 5.98105 7.46045 5.75117 7.79689ZM26.0787 51.4745C27.0374 50.3074 26.0712 50.8696 27.5975 50.6639C28.0229 50.6067 27.8192 50.6036 28.2242 50.2357C28.5381 49.9502 28.2752 50.1256 28.6665 49.9156C28.887 49.7974 28.8864 49.8382 29.0708 49.7433L30.7403 48.6692C32 47.5379 31.5041 48.2925 32.3252 47.707C29.1187 48.3032 31.0475 47.885 28.3456 48.9578L26.5876 49.9879C25.9329 50.4696 25.5149 50.7249 24.7162 51.0941L25.3305 51.4198C25.8326 51.5607 25.6245 51.4997 26.0787 51.4745ZM0.500834 24.9038C0.82104 24.6302 0.746907 24.6485 0.972421 24.1932C1.5468 23.0336 2.45758 21.933 3.32973 21.0086C3.95146 20.3496 3.50479 19.81 5.10644 18.4787L6.22716 17.4524C7.44943 16.4204 8.43122 16.0236 8.53339 15.2853C6.74422 16.3462 4.80368 17.7807 3.51289 19.4692L1.73618 21.8494C0.973666 22.9103 0.923832 23.3511 0.273454 24.3762L0.500834 24.9038C-0.0610847 25.2308 0.0716119 25.0887 0.05853 25.8056C0.334505 25.5276 0.197452 25.8528 0.443525 25.3276C0.666547 24.8516 0.460964 25.3346 0.500834 24.9038ZM11.3081 32.6401L10.0983 34.9222C9.30772 36.6069 10.1182 35.2058 8.82118 37.2012C7.52043 39.2029 8.02939 39.2413 6.29007 41.4737L5.12262 42.7679C4.58687 43.3439 4.34952 43.2226 3.95269 43.9112L5.42788 43.1352C6.17419 42.656 8.96821 38.5659 9.43917 37.6433C10.1855 36.1818 9.77308 37.7106 11.0265 35.2725L11.247 34.8291C11.3523 34.5946 11.3349 34.5839 11.4464 34.3644C11.5635 34.1342 11.49 34.304 11.6364 34.0412C11.6588 34.0003 11.8108 33.7167 11.8121 33.7135C11.9927 33.2953 11.8457 33.9475 11.9161 33.3394C12.1534 33.1142 11.9317 33.3765 12.2525 32.9803C12.4381 32.752 12.3902 32.7797 12.473 32.6652C12.8973 32.0892 12.63 32.4332 12.7995 31.8565C12.8113 31.8163 12.8244 31.7666 12.8375 31.7263C12.8499 31.6861 12.8736 31.6396 12.8873 31.6006C12.9795 31.3295 13.0736 31.2868 13.0555 30.9836C13.5676 30.4862 13.8 28.9763 13.9644 28.2632C14.3008 28.0299 14.0448 28.3041 14.2286 27.6978C14.9886 25.1893 15.0901 26.4866 14.9917 25.5213C15.6751 25.0484 15.3972 24.9107 15.8065 24.2404C16.4569 23.4153 16.5547 24.0976 16.6693 23.3354C15.7854 23.4713 15.5941 23.3725 15.2689 23.875C15.1101 24.1196 15.2141 23.9687 15.1443 24.2045C14.5606 24.7145 14.522 24.8063 14.4142 25.5918L13.9725 25.6679C13.866 26.6753 13.5146 26.1697 13.6492 27.0602C13.4629 27.2551 13.5234 27.074 13.3178 27.5117C12.9708 28.25 12.6419 29.5039 12.8586 30.2146L12.3734 30.2875C12.1634 30.6648 11.9678 30.9264 11.8202 31.2912C11.6812 31.6352 11.5828 31.9886 11.5193 32.2458C11.2595 32.4363 11.3317 32.0156 11.3081 32.6401ZM13.0623 32.4615C12.9832 33.0149 12.0787 34.5839 11.7473 35.1832L8.52216 40.1745C8.37576 40.3826 6.98965 41.7932 6.74295 42.5868C10.6016 39.0916 9.4809 40.0185 12.1989 36.2623C12.2076 36.2497 12.6088 35.6819 12.6269 35.6517C12.6898 35.5473 12.6917 35.5485 12.7951 35.3266C13.7906 33.1897 13.813 34.2613 14.1675 33.0457C14.4104 32.3162 15.1617 30.1315 15.1985 29.3775C15.5305 29.114 15.6265 27.1589 15.472 26.4766C15.457 26.4093 15.4265 26.3954 15.4016 26.3558C14.1338 28.7914 14.9281 27.3985 14.7437 28.372C14.6771 28.7248 14.5699 28.5663 14.555 29.0977C14.2746 29.4549 14.0566 30.8195 13.0623 32.4615ZM29.6383 10.2469C30.27 10.6343 30.0949 10.672 30.5024 11.0135C31.2101 11.6065 32.5613 12.3334 33.482 12.6762C32.5756 11.2512 31.2462 10.9053 29.9635 9.84634C29.2932 9.29294 28.8546 9.11623 27.9918 8.78796C27.1028 8.44901 26.3347 8.2484 25.888 7.58683C25.3373 7.55099 26.0157 7.67236 25.5709 7.49502L24.206 6.89257C22.6505 6.42847 19.5549 6.56179 17.9053 6.55487C18.4118 7.02903 21.5447 6.81522 24.1998 7.76669C25.5386 8.24714 28.5182 9.48348 29.6383 10.2469ZM7.84498 49.4615C8.40378 49.5835 8.29476 49.5049 8.7676 49.1603C9.46657 48.6497 10.6764 48.151 11.6918 47.5856C13.1795 46.758 14.0448 46.3078 15.2216 45.2362L17.9408 42.3038C18.1863 41.8529 17.8374 42.2491 18.433 41.4536C18.5021 41.3611 19.7873 39.2676 19.5481 38.8985C19.0952 38.1998 18.4273 40.0556 17.5434 41.275C15.7635 43.7294 14.0871 45.7298 11.318 47.1718C10.5761 47.5586 8.08918 48.6289 7.84498 49.4615ZM10.4571 2.82442C10.9231 3.86581 9.92382 2.69927 13.1981 3.11181C13.4909 3.14891 13.0767 3.28537 13.8342 3.1357C16.0868 2.69047 19.211 2.28045 21.4456 2.89045C22.068 3.06024 21.7827 3.11181 22.5365 3.20425C23.3233 3.30172 24.2889 3.31493 25.0707 3.50484C26.9844 3.96957 25.4108 3.90543 29.5966 4.6217C26.8636 2.93949 23.7251 2.45087 20.5791 2.14839C17.3845 1.8415 15.3841 2.4188 13.8654 2.15279C13.5121 2.09116 10.6116 2.72631 10.4571 2.82442ZM4.11586 11.1128L4.38747 11.5769C5.35556 10.948 5.91935 10.6651 7.18958 10.0953L10.4539 8.75586C11.5684 8.32006 12.8835 7.98487 14.1625 7.85659C17.149 7.55662 19.7979 7.71384 22.6591 8.4647L25.3846 9.51175C25.9272 9.74946 26.2935 9.75261 26.8934 9.93058L29.7049 11.0059L29.3928 10.3374C28.8944 10.4217 24.5604 8.60116 23.6746 8.29742C22.6548 7.94714 21.7757 7.58303 20.6395 7.48052C15.4694 7.01516 18.413 7.19565 13.5737 7.51825C11.9366 7.62768 6.46505 9.78719 5.31193 10.4311C4.93254 10.6424 4.62482 11.06 4.11586 11.1128ZM10.3056 49.0301C11.237 50.0369 16.8842 45.6235 18.1183 44.1092L19.487 42.3591C19.7823 42.0063 20.5722 40.5851 20.7398 40.0518C21.2132 38.5444 21.8599 38.613 22.0268 36.8704C22.0524 36.6031 22.086 36.6345 21.9546 36.4119C19.3337 39.9713 19.8495 40.37 18.7282 41.9654L17.4231 43.6118C16.9527 44.064 16.4344 44.6633 15.8993 45.2651C14.7836 46.5197 13.6398 47.08 12.3527 47.9051C11.6843 48.3327 10.928 48.6156 10.3056 49.0301ZM8.80118 11.6014C9.45903 11.702 14.6758 9.55074 15.9965 9.2382C19.5636 8.39363 24.6514 10.106 28.0179 11.3373C29.2925 11.8033 31.7713 13.3295 32.7568 14.2351L34.7977 15.7368C34.0781 14.7413 33.5748 14.1074 32.4815 13.349C28.9592 10.9034 31.9108 12.5906 28.2602 10.9927C26.6997 10.3097 26.9196 10.6783 25.1142 9.89724C23.0398 8.99985 18.1625 8.02512 16.1591 8.74643L10.5212 10.6575C10.1736 10.782 9.82596 10.8782 9.54874 11.0078C8.83731 11.3392 8.92079 11.4304 8.80118 11.6014ZM8.01686 13.0987C8.63485 13.4302 8.68593 12.8724 9.6833 12.4862C13.3183 11.0788 16.6313 9.89787 20.6195 10.3135C21.3235 10.3871 21.9651 10.4091 22.6622 10.6185C25.3235 11.4178 29.9933 13.2836 31.9214 15.4362C32.107 15.6438 32.1288 15.6544 32.2752 15.7985C33.4103 16.9172 33.4807 16.4531 34.9166 18.4818C35.6567 19.5276 35.1209 18.9591 36.1819 19.9458C35.4156 18.2328 34.6032 17.3794 33.4757 16.0242L31.3576 14.0967C29.1517 12.4925 27.7905 11.7398 24.7485 10.848C22.7899 10.2745 23.8708 10.2091 21.0387 9.91547C19.0303 9.70669 18.4422 9.89724 16.4394 10.0519C15.123 10.1531 13.1476 10.7889 11.7702 11.2266C10.7853 11.5392 8.43176 12.3881 8.01686 13.0987ZM7.18956 5.86312C8.1346 5.8518 10.1667 4.70286 11.3329 4.62551C12.6655 4.53747 13.4099 4.07966 16.1148 4.28404C16.6705 4.32618 17.0188 4.40416 17.7003 4.37083L19.31 4.6142C19.7262 4.35825 19.2857 4.08407 20.5124 4.80663L20.9603 4.2721C21.6511 4.8997 20.8195 4.46138 23.4054 4.78776C26.9732 5.23866 27.6067 5.52542 30.924 6.7146C30.6013 5.95619 29.5024 5.51662 28.6801 5.21853C28.0939 5.0066 27.8005 5.18772 27.1981 4.98585C26.7427 4.83304 26.1689 4.5381 25.7746 4.43246C22.5844 3.57909 16.1815 3.48287 13.2791 3.74888C12.5496 3.81554 8.76441 4.66576 8.29656 4.96573C7.72032 5.33613 7.55836 5.33676 7.18956 5.86312ZM8.20936 50.8224C8.7339 51.2575 9.58114 50.7387 11.118 50.2312C13.451 49.4609 18.018 46.4027 19.6832 44.4589L21.5378 41.3806C21.7832 41.0234 21.6717 41.29 21.9495 40.7687C22.0853 40.514 22.0928 40.4687 22.2162 40.1971C22.4897 39.5971 23.621 36.8798 23.4085 36.3887C23.2628 36.0516 23.758 36.3245 23.203 36.1981C22.8528 36.1189 22.7332 36.4409 22.5819 36.793C22.3644 37.2961 22.37 37.6414 22.152 38.1759L21.0475 40.5769C19.6122 43.9067 16.6967 46.4021 13.6603 48.3786C10.984 50.1199 8.95506 50.0778 8.20936 50.8224ZM15.4128 48.8459C16.4058 49.0565 19.6994 46.0342 20.4812 45.1827L21.6319 43.7244C21.7627 43.5307 21.782 43.5112 21.8455 43.42C22.5651 42.3962 23.2267 41.1536 23.7668 39.9305L24.7143 37.5716C24.9523 36.7534 25.8986 33.0054 25.4245 32.3055L24.8233 33.4041C24.6209 34.0147 24.3274 35.9126 23.4385 38.3287C23.2347 38.8821 23.1264 38.9431 22.9133 39.4689C22.5607 40.3424 22.5165 40.8442 21.9944 41.707C20.8513 43.598 19.031 45.943 17.1459 47.2114C15.6626 48.2094 15.3822 48.1717 15.4128 48.8459ZM5.1132 9.33378C6.29808 9.54194 9.68267 7.27929 13.8173 6.80701C15.204 6.64854 18.1164 5.77631 19.2284 5.8285C21.2431 5.92346 22.342 5.80335 24.3143 6.31272C26.9202 6.98561 25.5366 5.95868 29.0246 7.31576L31.965 8.60808C31.101 7.31891 28.7063 6.75859 27.9238 6.29638C27.1856 5.85995 27.2672 5.90523 26.2804 5.83794C25.3753 5.77631 25.4357 5.57319 24.7523 5.46754L19.2091 5.22228C16.977 5.13047 17.4542 5.73481 15.7959 5.99075C14.2459 6.23035 15.2906 5.76436 11.9945 6.56113C9.3718 7.19565 8.11091 7.80439 5.89005 8.86654L5.1132 9.33378ZM8.72891 15.1111C9.26404 15.3092 10.1337 14.5709 10.6981 14.2615C12.6418 13.1975 15.9329 12.407 18.0242 12.5372C21.3583 12.7447 24.6121 13.2428 27.4061 15.2369C27.674 15.428 27.9219 15.5651 28.2371 15.7639C29.5042 16.5638 30.2051 17.5693 31.19 18.6422C31.7177 19.2163 32.1718 19.2371 32.6739 19.9735C33.8115 21.6425 35.192 24.6862 36.0423 25.9244C36.5264 26.6294 36.4846 27.2871 36.9867 27.9166C37.0197 27.0834 36.7942 26.3369 36.4111 25.6163C34.7708 22.5336 33.8993 20.6608 31.6535 17.9844C31.1134 17.3411 30.653 17.0574 30.1229 16.5129C29.6781 16.0557 27.4404 14.5319 26.7931 14.176C25.954 13.7138 23.6184 12.8013 22.8017 12.5755C18.1824 11.3015 14.5437 12.3278 10.4613 13.9395C10.0739 14.093 9.82655 14.181 9.44342 14.4275C9.0117 14.7055 8.88838 14.8552 8.72891 15.1111ZM32.6821 37.5967C33.7386 37.3986 33.4807 36.9704 34.0046 34.7612C34.8313 31.276 33.9224 30.0032 33.1325 27.5513C31.709 23.1322 29.708 17.4524 25.0669 15.5714C25.0033 15.5457 24.3617 15.279 24.353 15.2765C23.6957 15.0841 23.801 15.335 23.778 15.3602C25.0694 15.972 25.0326 15.8639 26.1795 16.7789C29.1928 19.1836 29.323 19.7471 31.1819 24.4755C35.3191 34.9995 32.4721 34.9398 32.6821 37.5967ZM0.917508 21.2413C1.59592 20.8507 3.53086 17.4549 8.59562 14.2791C10.4627 13.1082 12.0886 12.6573 14.173 12.0403C16.2918 11.4134 18.6889 11.2367 20.6887 11.5046C24.4483 12.0083 27.1931 13.4471 30.0967 15.689C32.9705 17.9083 31.828 17.1555 33.662 19.4094C35.6069 21.7997 35.7402 23.014 36.6834 23.9189C34.2569 18.6648 31.7812 14.7891 26.0244 12.473C21.7322 10.7461 17.7121 10.4342 13.1091 11.8492L11.1934 12.4868C8.71339 13.4811 5.74492 15.2029 4.09409 17.1505C3.06931 18.3598 2.93599 17.963 1.42965 20.1175C1.35676 20.2225 1.07892 20.5872 1.06148 20.6187C0.811665 21.0708 0.774224 20.3017 0.917508 21.2413Z" fill="#E94D37"/>
</svg>
