<svg width="30" height="34" viewBox="0 0 30 34" fill="none" xmlns="http://www.w3.org/2000/svg">
<g clip-path="url(#clip0_14848_1511)">
<path d="M7.24151 29.75H6.20703V34H7.24151V29.75Z" fill="#566079"/>
<path d="M23.7933 29.75H22.7588V34H23.7933V29.75Z" fill="#566079"/>
<path d="M12.4134 15.4062H11.3789V18.0625H12.4134V15.4062Z" fill="#566079"/>
<path d="M18.6204 15.4062H17.5859V18.0625H18.6204V15.4062Z" fill="#566079"/>
<path d="M20.6895 8.5H20.1723C19.7607 8.5 19.366 8.33209 19.075 8.0332C18.784 7.73432 18.6206 7.32894 18.6206 6.90625V5.84375C18.6206 5.70285 18.5661 5.56773 18.469 5.4681C18.372 5.36847 18.2405 5.3125 18.1033 5.3125C17.9661 5.3125 17.8346 5.25653 17.7376 5.1569C17.6406 5.05727 17.5861 4.92215 17.5861 4.78125V4.57937L16.2671 5.25406C16.195 5.29199 16.1153 5.312 16.0343 5.3125H11.8964C11.7592 5.3125 11.6277 5.36847 11.5307 5.4681C11.4337 5.56773 11.3792 5.70285 11.3792 5.84375V6.90625C11.3792 7.32894 11.2157 7.73432 10.9247 8.0332C10.6337 8.33209 10.239 8.5 9.82745 8.5H9.31021C9.17303 8.5 9.04147 8.44403 8.94447 8.3444C8.84747 8.24477 8.79297 8.10965 8.79297 7.96875V3.71875C8.79297 3.15516 9.01095 2.61466 9.39895 2.21615C9.78696 1.81763 10.3132 1.59375 10.8619 1.59375H10.9292C11.0438 1.13787 11.3025 0.73399 11.6649 0.445527C12.0272 0.157063 12.4725 0.000351198 12.9309 0H18.6206C19.3065 0 19.9643 0.279852 20.4493 0.777996C20.9343 1.27614 21.2068 1.95177 21.2068 2.65625V7.96875C21.2068 8.10965 21.1523 8.24477 21.0553 8.3444C20.9583 8.44403 20.8267 8.5 20.6895 8.5ZM18.6206 4.34031C18.9232 4.45022 19.1853 4.65383 19.3705 4.9231C19.5558 5.19237 19.6552 5.51403 19.655 5.84375V6.90625C19.655 7.04715 19.7095 7.18227 19.8065 7.2819C19.9035 7.38153 20.0351 7.4375 20.1723 7.4375V2.65625C20.1723 2.23356 20.0088 1.82818 19.7178 1.5293C19.4268 1.23041 19.0321 1.0625 18.6206 1.0625H12.9309C12.6565 1.0625 12.3934 1.17444 12.1994 1.3737C12.0054 1.57296 11.8964 1.84321 11.8964 2.125C11.8964 2.2659 11.8419 2.40102 11.7449 2.50065C11.6479 2.60028 11.5164 2.65625 11.3792 2.65625H10.8619C10.5876 2.65625 10.3244 2.76819 10.1304 2.96745C9.93644 3.16671 9.82745 3.43696 9.82745 3.71875V7.4375C9.96463 7.4375 10.0962 7.38153 10.1932 7.2819C10.2902 7.18227 10.3447 7.04715 10.3447 6.90625V5.84375C10.3447 5.42106 10.5082 5.01568 10.7992 4.7168C11.0902 4.41791 11.4849 4.25 11.8964 4.25H15.9102L17.8705 3.24594C17.9493 3.20519 18.0369 3.18579 18.125 3.18958C18.2131 3.19337 18.2988 3.22022 18.3739 3.26759C18.449 3.31496 18.5111 3.38128 18.5543 3.46024C18.5975 3.5392 18.6203 3.62819 18.6206 3.71875V4.34031Z" fill="#566079"/>
<path d="M14.9999 17C10.9706 17 9.39821 12.9944 9.31028 10.3169L8.93786 9.93969C8.84293 9.83857 8.79086 9.70295 8.79303 9.5625V7.96875H9.82752V9.34469L10.1948 9.71656C10.2427 9.7662 10.2806 9.82507 10.3064 9.8898C10.3321 9.95452 10.3452 10.0238 10.3448 10.0938C10.3448 12.3516 11.6068 15.9375 14.9999 15.9375C18.393 15.9375 19.6551 12.3516 19.6551 10.0938C19.6547 10.0238 19.6678 9.95452 19.6935 9.8898C19.7192 9.82507 19.7572 9.7662 19.8051 9.71656L20.1723 9.34469V7.96875H21.2068V9.5625C21.2072 9.63242 21.1942 9.70173 21.1684 9.76645C21.1427 9.83118 21.1048 9.89005 21.0568 9.93969L20.6844 10.3169C20.6017 12.9944 19.0292 17 14.9999 17Z" fill="#566079"/>
<path d="M12.931 22.8437C12.8421 22.8434 12.7548 22.8196 12.6775 22.7746L8.02235 20.1184C7.94397 20.0717 7.8789 20.0046 7.83368 19.924C7.78845 19.8433 7.76465 19.7519 7.76465 19.6588C7.76465 19.5658 7.78845 19.4743 7.83368 19.3937C7.8789 19.313 7.94397 19.246 8.02235 19.1993L10.6086 17.6056C10.7254 17.5345 10.8647 17.5136 10.9965 17.5471L15.1344 18.6096C15.2492 18.6387 15.3508 18.7073 15.4223 18.8039C15.4938 18.9006 15.531 19.0195 15.5275 19.1409V20.2034C15.5279 20.2733 15.5149 20.3426 15.4891 20.4073C15.4634 20.472 15.4255 20.5309 15.3775 20.5806L13.3086 22.7056C13.2577 22.7532 13.1982 22.79 13.1333 22.8137C13.0685 22.8374 12.9997 22.8476 12.931 22.8437ZM9.31028 19.6562L12.843 21.6696L14.4827 19.9855V19.5552L10.9448 18.6468L9.31028 19.6562Z" fill="#566079"/>
<path d="M17.0688 22.8437C17.0008 22.8442 16.9333 22.8307 16.8703 22.8043C16.8073 22.7779 16.7499 22.7389 16.7016 22.6897L14.6326 20.5647C14.5847 20.515 14.5468 20.4562 14.521 20.3914C14.4953 20.3267 14.4822 20.2574 14.4826 20.1875V19.125C14.4792 19.0036 14.5163 18.8847 14.5878 18.7881C14.6594 18.6914 14.761 18.6228 14.8757 18.5937L19.0137 17.5312C19.1454 17.4977 19.2848 17.5187 19.4016 17.5897L21.9878 19.1834C22.0662 19.2301 22.1313 19.2972 22.1765 19.3778C22.2217 19.4585 22.2455 19.5499 22.2455 19.643C22.2455 19.736 22.2217 19.8275 22.1765 19.9081C22.1313 19.9888 22.0662 20.0558 21.9878 20.1025L17.3326 22.7587C17.2539 22.8111 17.1627 22.8405 17.0688 22.8437ZM15.5171 19.9697L17.1568 21.6537L20.6895 19.6562L19.0551 18.6469L15.5171 19.5394V19.9697Z" fill="#566079"/>
<path d="M15.5169 25.5H14.4824V26.5625H15.5169V25.5Z" fill="#566079"/>
<path d="M15.5169 23.375H14.4824V24.4375H15.5169V23.375Z" fill="#566079"/>
<path d="M15.5169 27.625H14.4824V28.6875H15.5169V27.625Z" fill="#566079"/>
<path d="M15.5169 29.75H14.4824V30.8125H15.5169V29.75Z" fill="#566079"/>
<path d="M30.0003 34.0001H28.9658V27.6251C28.9658 25.1654 27.3727 23.5663 23.6278 22.286C23.5928 22.2756 23.5596 22.2594 23.5296 22.2382L20.9434 20.6445L21.4606 19.7307L24.0003 21.3245C26.8141 22.2595 30.0003 23.8585 30.0003 27.6251V34.0001Z" fill="#566079"/>
<path d="M1.03448 34H0V27.625C0 23.8585 3.1862 22.2594 5.98965 21.2979L8.52931 19.7041L9.04655 20.6179L6.46034 22.2116C6.43028 22.2328 6.3971 22.249 6.36206 22.2594C2.62758 23.5663 1.03448 25.1654 1.03448 27.625V34Z" fill="#566079"/>
<path d="M12.4137 11.6875C12.0045 11.6875 11.6045 11.5629 11.2642 11.3294C10.924 11.0959 10.6588 10.764 10.5022 10.3757C10.3456 9.98741 10.3047 9.56014 10.3845 9.14793C10.4643 8.73572 10.6614 8.35708 10.9507 8.0599C11.2401 7.76271 11.6087 7.56032 12.0101 7.47833C12.4114 7.39634 12.8274 7.43842 13.2054 7.59926C13.5835 7.7601 13.9066 8.03246 14.134 8.38192C14.3613 8.73137 14.4827 9.14221 14.4827 9.5625C14.4827 10.1261 14.2647 10.6666 13.8767 11.0651C13.4887 11.4636 12.9624 11.6875 12.4137 11.6875ZM12.4137 8.5C12.2091 8.5 12.0091 8.56232 11.839 8.67907C11.6688 8.79582 11.5363 8.96175 11.458 9.1559C11.3797 9.35005 11.3592 9.56368 11.3991 9.76978C11.439 9.97589 11.5375 10.1652 11.6822 10.3138C11.8269 10.4624 12.0112 10.5636 12.2119 10.6046C12.4125 10.6456 12.6205 10.6245 12.8096 10.5441C12.9986 10.4637 13.1602 10.3275 13.2738 10.1528C13.3875 9.97807 13.4482 9.77264 13.4482 9.5625C13.4482 9.28071 13.3392 9.01046 13.1452 8.8112C12.9512 8.61194 12.6881 8.5 12.4137 8.5Z" fill="#566079"/>
<path d="M17.5865 11.6875C17.1773 11.6875 16.7773 11.5629 16.4371 11.3294C16.0968 11.0959 15.8317 10.764 15.6751 10.3757C15.5185 9.98741 15.4775 9.56014 15.5573 9.14793C15.6372 8.73572 15.8342 8.35708 16.1236 8.0599C16.4129 7.76271 16.7816 7.56032 17.1829 7.47833C17.5843 7.39634 18.0003 7.43842 18.3783 7.59926C18.7564 7.7601 19.0795 8.03246 19.3068 8.38192C19.5342 8.73137 19.6555 9.14221 19.6555 9.5625C19.6555 10.1261 19.4375 10.6666 19.0495 11.0651C18.6615 11.4636 18.1353 11.6875 17.5865 11.6875ZM17.5865 8.5C17.3819 8.5 17.1819 8.56232 17.0118 8.67907C16.8417 8.79582 16.7091 8.96175 16.6308 9.1559C16.5525 9.35005 16.532 9.56368 16.572 9.76978C16.6119 9.97589 16.7104 10.1652 16.8551 10.3138C16.9997 10.4624 17.1841 10.5636 17.3847 10.6046C17.5854 10.6456 17.7934 10.6245 17.9824 10.5441C18.1715 10.4637 18.333 10.3275 18.4467 10.1528C18.5604 9.97807 18.621 9.77264 18.621 9.5625C18.621 9.28071 18.512 9.01046 18.318 8.8112C18.124 8.61194 17.8609 8.5 17.5865 8.5Z" fill="#566079"/>
<path d="M16.0348 9.03125H13.9658V10.0938H16.0348V9.03125Z" fill="#566079"/>
<path d="M10.8619 10.0938H10.3447C9.93315 10.0938 9.53847 9.92584 9.24746 9.62695C8.95646 9.32807 8.79297 8.92269 8.79297 8.5H9.82745C9.82745 8.6409 9.88195 8.77602 9.97895 8.87565C10.076 8.97528 10.2075 9.03125 10.3447 9.03125H10.8619V10.0938Z" fill="#566079"/>
<path d="M19.6549 10.0938H19.1377V9.03125H19.6549C19.7921 9.03125 19.9237 8.97528 20.0207 8.87565C20.1177 8.77602 20.1722 8.6409 20.1722 8.5H21.2067C21.2067 8.92269 21.0432 9.32807 20.7522 9.62695C20.4612 9.92584 20.0665 10.0938 19.6549 10.0938Z" fill="#566079"/>
<line x1="9.71348e-10" y1="33.5" x2="30" y2="33.5" stroke="#566079"/>
</g>
<defs>
<clipPath id="clip0_14848_1511">
<rect width="30" height="34" fill="white"/>
</clipPath>
</defs>
</svg>
