<svg width="163" height="113" viewBox="0 0 163 113" fill="none" xmlns="http://www.w3.org/2000/svg">
<path d="M54.0437 0C71.981 0 89.9183 0 108.399 0C109.48 1.89219 110.529 3.77299 111.519 5.7105C112.432 7.48509 113.358 9.25014 114.321 10.998C115.243 12.6734 116.143 14.3589 117.026 16.0546C117.161 16.3129 117.296 16.5711 117.431 16.8291C117.619 17.1883 117.806 17.5482 117.993 17.9081C118.101 18.1155 118.208 18.3229 118.32 18.5366C118.551 19.035 118.551 19.035 118.551 19.458C118.743 19.457 118.935 19.4561 119.132 19.4551C123.803 19.4317 128.474 19.4142 133.145 19.4032C135.404 19.3978 137.663 19.3904 139.922 19.3782C141.892 19.3677 143.861 19.3609 145.831 19.3585C146.873 19.3571 147.916 19.3539 148.958 19.3462C149.94 19.339 150.923 19.3368 151.905 19.3384C152.265 19.3381 152.624 19.336 152.983 19.3319C155.921 19.3002 158.215 19.7885 160.388 21.9018C162.583 24.3515 162.851 27.1382 162.835 30.3149C162.836 30.6364 162.837 30.9578 162.838 31.2792C162.841 32.156 162.84 33.0327 162.838 33.9095C162.836 34.8576 162.838 35.8057 162.84 36.7538C162.843 38.6085 162.842 40.4633 162.841 42.318C162.839 43.826 162.839 45.3339 162.84 46.8418C162.84 47.0568 162.84 47.2717 162.84 47.4931C162.84 47.9298 162.84 48.3665 162.841 48.8032C162.842 52.8943 162.84 56.9854 162.837 61.0765C162.834 64.5838 162.835 68.0912 162.837 71.5986C162.841 75.6754 162.842 79.7522 162.84 83.8291C162.84 84.2641 162.84 84.6992 162.84 85.1342C162.84 85.3483 162.839 85.5623 162.839 85.7828C162.839 87.2882 162.84 88.7937 162.841 90.2991C162.843 92.1347 162.842 93.9703 162.839 95.8059C162.837 96.7417 162.837 97.6775 162.839 98.6134C162.841 99.4713 162.84 100.329 162.836 101.187C162.836 101.496 162.836 101.805 162.838 102.114C162.853 105.375 162.313 108.012 160.071 110.469C158.782 111.699 156.952 112.544 155.164 112.546C154.841 112.547 154.841 112.547 154.512 112.548C154.274 112.548 154.037 112.547 153.792 112.547C153.54 112.548 153.287 112.548 153.027 112.549C152.322 112.55 151.617 112.55 150.912 112.55C150.146 112.551 149.381 112.552 148.616 112.553C147.096 112.556 145.576 112.557 144.055 112.558C142.235 112.559 140.415 112.561 138.595 112.563C134.196 112.569 129.796 112.572 125.396 112.575C123.939 112.576 122.482 112.577 121.025 112.578C113.279 112.583 105.534 112.588 97.7885 112.59C95.9935 112.591 94.1984 112.591 92.4034 112.592C92.1804 112.592 91.9574 112.592 91.7276 112.592C84.4971 112.595 77.2666 112.601 70.0361 112.61C62.6045 112.619 55.1729 112.625 47.7413 112.626C46.6917 112.626 45.6422 112.626 44.5927 112.627C44.3861 112.627 44.1796 112.627 43.9667 112.627C40.6416 112.627 37.3164 112.632 33.9912 112.637C30.649 112.643 27.3067 112.645 23.9645 112.642C21.9787 112.641 19.9929 112.643 18.0071 112.648C16.6803 112.652 15.3534 112.652 14.0265 112.649C13.2707 112.647 12.515 112.647 11.7592 112.651C10.9439 112.656 10.1288 112.653 9.31347 112.649C8.9639 112.653 8.9639 112.653 8.60726 112.657C6.15992 112.63 4.22554 111.757 2.47816 110.063C0.364182 107.756 0.0159008 105.543 0.0291792 102.5C0.0282957 102.17 0.0271353 101.84 0.025726 101.511C0.022675 100.607 0.0235669 99.7043 0.025129 98.8011C0.0261307 97.8258 0.0234823 96.8505 0.0213176 95.8751C0.0176833 93.9657 0.0175046 92.0563 0.0186132 90.1469C0.0194684 88.5948 0.0191626 87.0427 0.0180323 85.4906C0.017874 85.2696 0.0177145 85.0486 0.0175514 84.8209C0.0172275 84.3718 0.0169036 83.9228 0.0165768 83.4738C0.0136743 79.2645 0.0148246 75.0553 0.0172513 70.846C0.0193522 66.9962 0.0166119 63.1464 0.011552 59.2966C0.0063937 55.342 0.00436188 51.3875 0.00576881 47.433C0.00650747 45.2134 0.006035 42.9939 0.0023318 40.7743C-0.000781398 38.885 -0.00091603 36.9956 0.00277071 35.1063C0.00457144 34.1427 0.00502257 33.1791 0.0017864 32.2154C-0.00114175 31.3326 -0.000135606 30.4498 0.00395187 29.567C0.00474732 29.2483 0.00412822 28.9297 0.00191872 28.611C-0.0152206 25.9491 0.456247 23.9156 2.27905 21.8903C3.98582 20.3386 5.51508 19.382 7.8854 19.3737C8.04144 19.3723 8.19749 19.3709 8.35826 19.3694C8.87622 19.3655 9.39408 19.366 9.91205 19.3666C10.2853 19.3647 10.6585 19.3625 11.0318 19.36C12.0415 19.3542 13.0512 19.3522 14.061 19.351C15.1175 19.349 16.1741 19.3434 17.2306 19.3383C19.2297 19.329 21.2289 19.323 23.2281 19.3181C25.5047 19.3124 27.7813 19.3031 30.0579 19.2935C34.7397 19.2739 39.4214 19.2587 44.1032 19.2465C44.2101 19.0319 44.2101 19.0319 44.3191 18.813C44.6476 18.154 44.9764 17.4952 45.3052 16.8364C45.4172 16.6114 45.5293 16.3864 45.6448 16.1547C46.3195 14.8033 47.0059 13.4593 47.7136 12.1249C47.8034 11.9553 47.8933 11.7858 47.9859 11.6111C48.0665 11.4591 48.1471 11.307 48.2301 11.1504C48.798 10.0768 49.3522 8.99637 49.9046 7.91473C49.9995 7.72882 50.0945 7.5429 50.1923 7.35136C50.5794 6.59317 50.966 5.83479 51.3524 5.07631C51.6406 4.51095 51.9292 3.94581 52.2178 3.3807C52.304 3.21127 52.3901 3.04183 52.4789 2.86727C52.602 2.62648 52.602 2.62648 52.7275 2.38082C52.7981 2.24218 52.8688 2.10354 52.9416 1.9607C53.2944 1.29917 53.6717 0.650958 54.0437 0Z" fill="#FACD05"/>
<path d="M93.5941 22.2067C93.84 22.2798 94.086 22.3528 94.3393 22.4281C99.1055 23.9118 103.664 26.2651 107.553 29.3977C107.735 29.537 107.917 29.6764 108.105 29.8199C110.968 32.0603 113.444 34.7207 115.59 37.6462C115.721 37.8204 115.852 37.9946 115.987 38.1741C121.101 45.1942 123.735 53.5582 123.693 62.2067C123.693 62.3775 123.692 62.5484 123.692 62.7245C123.656 71.1919 121.275 79.612 116.225 86.5027C116.062 86.7252 115.9 86.9477 115.732 87.1769C114.517 88.811 113.19 90.3192 111.783 91.7902C111.598 91.9863 111.413 92.1823 111.223 92.3842C105.567 98.2308 97.7889 102.412 89.7871 103.846C89.5806 103.884 89.3741 103.921 89.1614 103.96C77.9294 105.966 66.7201 103.59 57.2161 97.2892C56.1861 96.5643 55.2145 95.7781 54.2551 94.9627C54.0771 94.812 53.8991 94.6612 53.7156 94.5059C53.1782 94.0353 52.6579 93.5514 52.1401 93.0592C51.9648 92.8942 51.9648 92.8942 51.7859 92.7259C44.3487 85.6843 39.2654 75.5011 38.9656 65.1645C38.9493 64.3107 38.9457 63.4572 38.9478 62.6032C38.9479 62.4231 38.948 62.2429 38.9481 62.0573C38.9569 59.0696 39.1647 56.2101 39.8731 53.2972C39.9411 53.0124 39.9411 53.0124 40.0105 52.7219C42.6195 42.109 49.5602 32.4188 58.9321 26.7449C59.7564 26.2627 60.5973 25.8165 61.4461 25.3792C61.5796 25.3088 61.713 25.2383 61.8505 25.1658C71.4136 20.1624 83.272 18.9056 93.5941 22.2067Z" fill="#F0EBE4"/>
<path d="M84.2188 24.4355C85.4428 24.4697 86.5175 24.5361 87.6722 24.956C87.3847 26.8875 86.9645 28.7719 86.4958 30.6665C86.4215 30.9697 86.3474 31.2728 86.2733 31.576C85.6737 34.0236 85.0581 36.4671 84.4439 38.9111C83.9467 40.8912 83.4591 42.8727 83.006 44.8635C82.9413 45.1472 82.9413 45.1472 82.8753 45.4366C82.6711 46.2916 82.6711 46.2916 82.5962 47.1635C82.6712 47.0275 82.7462 46.8915 82.8234 46.7513C84.5328 43.8499 87.0976 41.7283 89.7872 39.761C89.9272 39.6586 90.0671 39.5562 90.2113 39.4507C93.3263 37.191 96.5644 35.1052 99.7839 32.9988C99.9237 32.9073 100.063 32.8157 100.207 32.7214C100.475 32.5465 100.744 32.3723 101.012 32.1989C101.302 32.0116 101.59 31.8221 101.878 31.6312C102.028 31.5333 102.178 31.4355 102.333 31.3347C102.468 31.245 102.604 31.1554 102.744 31.0631C103.112 30.878 103.112 30.878 103.676 30.9689C104.239 31.3478 104.77 31.7411 105.293 32.1735C105.48 32.3267 105.666 32.4799 105.859 32.6378C106.069 32.8136 106.069 32.8136 106.284 32.993C105.473 34.7493 103.841 36.1158 102.531 37.5134C101.844 38.2468 101.163 38.9841 100.494 39.7346C99.2135 41.1677 97.8846 42.5564 96.5656 43.9543C94.7781 45.8508 92.9998 47.7542 91.2677 49.7015C91.4673 49.602 91.6669 49.5025 91.8725 49.4C96.6448 47.0651 101.892 46.8294 107.118 46.4183C107.702 46.3718 108.285 46.3236 108.869 46.2753C109.576 46.2171 110.283 46.1603 110.99 46.1036C111.248 46.0824 111.505 46.0613 111.771 46.0395C113.259 45.9234 114.732 45.8676 116.225 45.8945C116.881 47.1222 117.315 48.0929 117.494 49.49C115.493 50.1468 113.493 50.8034 111.492 51.4596C111.345 51.5079 111.198 51.5561 111.047 51.6058C106.502 53.0968 101.955 54.5822 97.4012 56.0465C97.7893 56.0895 97.7893 56.0895 98.1853 56.1333C100.851 56.4602 103.182 57.1164 105.65 58.1615C105.956 58.291 105.956 58.291 106.269 58.4231C110.208 60.1011 114.117 61.8714 117.869 63.9373C118.579 64.3095 119.291 64.6231 120.032 64.9295C120.002 65.4363 119.971 65.943 119.939 66.4497C119.927 66.6634 119.927 66.6634 119.914 66.8814C119.865 67.6588 119.77 68.3984 119.609 69.1595C117.949 68.892 116.299 68.5946 114.652 68.2607C114.426 68.2151 114.2 68.1695 113.967 68.1226C113.239 67.9754 112.511 67.8274 111.783 67.679C111.421 67.6053 111.421 67.6053 111.051 67.5301C106.986 66.7016 102.933 65.8246 98.8817 64.9295C99.0376 65.0416 99.1934 65.1536 99.354 65.269C99.5605 65.4182 99.767 65.5673 99.9797 65.721C100.184 65.8679 100.387 66.0149 100.597 66.1662C103.904 68.6308 106.268 71.9493 108.611 75.293C108.748 75.4889 108.886 75.6848 109.028 75.8867C110.754 78.3462 112.459 80.8187 114.11 83.3301C113.305 84.4282 112.468 85.4781 111.572 86.5026C110.914 86.2085 110.45 85.8631 109.931 85.3649C109.782 85.2233 109.633 85.0816 109.48 84.9357C109.324 84.7853 109.168 84.635 109.007 84.4801C108.683 84.1715 108.359 83.863 108.035 83.5548C107.879 83.4062 107.723 83.2576 107.562 83.1045C106.33 81.9382 105.053 80.8228 103.774 79.7089C103.027 79.0504 102.295 78.3769 101.559 77.7063C100.957 77.1604 100.346 76.6246 99.7327 76.0911C99.0581 75.4999 98.3935 74.8976 97.7276 74.2967C96.9173 73.5673 96.102 72.8437 95.2862 72.1205C95.3528 72.2566 95.4193 72.3926 95.4878 72.5328C96.2064 74.0501 96.7578 75.5744 97.1897 77.1966C97.264 77.471 97.264 77.471 97.3398 77.7511C97.8678 79.8425 98.0774 81.9412 98.2737 84.0835C98.2918 84.2747 98.3099 84.4659 98.3285 84.6629C98.6971 88.5862 98.8395 92.504 98.8817 96.4431C98.4069 96.6919 97.931 96.9383 97.4541 97.1833C97.32 97.2539 97.1858 97.3245 97.0476 97.3973C96.3183 97.7695 95.9105 97.9236 95.0747 97.9236C95.0335 97.7891 94.9922 97.6546 94.9496 97.5161C93.3453 92.2927 91.7266 87.0739 90.0939 81.8594C89.5638 80.1656 89.0385 78.4704 88.5182 76.7736C88.4753 77.1543 88.4753 77.1543 88.4315 77.5427C87.7599 82.9444 85.6029 87.9581 83.0302 92.722C82.0331 94.5683 81.107 96.4499 80.1762 98.3302C80.0541 98.5761 79.932 98.8219 79.8063 99.0752C79.6968 99.2967 79.5873 99.5181 79.4745 99.7462C79.2122 100.25 79.2122 100.25 79.0007 100.462C77.6482 100.534 76.3147 100.492 74.9822 100.25C75.0837 98.2358 75.512 96.3126 75.9604 94.3545C76.0369 94.0157 76.1133 93.6768 76.1896 93.3379C76.7149 91.015 77.2669 88.6989 77.8331 86.3856C78.4751 83.7547 79.0588 81.1115 79.6352 78.4656C79.5383 78.6063 79.4414 78.747 79.3416 78.892C76.8138 82.5376 73.6309 85.1057 69.9459 87.5072C69.6408 87.708 69.3359 87.909 69.031 88.1102C68.1265 88.7057 67.2191 89.2969 66.3107 89.8866C66.1742 89.9752 66.0377 90.0639 65.8971 90.1552C61.3146 93.13 61.3146 93.13 59.5427 94.1166C59.1276 93.8138 58.7136 93.5096 58.3002 93.2045C58.1239 93.0763 58.1239 93.0763 57.9441 92.9455C57.3684 92.5189 56.9835 92.1812 56.5817 91.5786C56.7325 91.415 56.8833 91.2514 57.0386 91.0829C58.3518 89.6587 58.3518 89.6587 59.6353 88.2078C60.4877 87.2255 61.3739 86.2744 62.2584 85.3211C62.6866 84.8595 63.1124 84.396 63.5356 83.9299C64.8647 82.4701 66.2353 81.0607 67.6444 79.6777C68.8389 78.499 69.9675 77.2801 70.9637 75.9276C70.7734 76.0222 70.5831 76.1168 70.3871 76.2142C63.0536 79.7232 54.1579 79.2011 46.2182 79.3116C45.7995 78.1948 45.3807 77.0781 44.9492 75.9276C45.9659 75.4918 46.9009 75.1258 47.9482 74.8048C48.0926 74.7604 48.2369 74.716 48.3856 74.6702C48.8614 74.5243 49.3375 74.3797 49.8137 74.2355C49.98 74.1851 50.1462 74.1346 50.3175 74.0826C51.3847 73.7591 52.4526 73.4379 53.5209 73.1179C54.0712 72.953 54.6213 72.7878 55.1715 72.6224C56.977 72.0806 58.7842 71.5469 60.5979 71.0325C61.4727 70.7839 62.3453 70.5277 63.2175 70.2699C63.3757 70.2233 63.5338 70.1767 63.6967 70.1286C64.0746 70.0172 64.4524 69.9057 64.8302 69.794C63.6939 69.5061 63.6939 69.5061 62.5517 69.243C55.7748 67.7269 48.8 63.7674 42.8342 60.2765C42.8646 59.9196 42.8955 59.5627 42.9268 59.2058C42.9439 59.0071 42.9611 58.8083 42.9788 58.6035C43.052 57.8888 43.1517 57.1802 43.2572 56.4695C48.4237 57.4712 53.5428 58.6398 58.6439 59.9329C59.1875 60.0698 59.7311 60.2067 60.2747 60.3435C61.582 60.6726 62.889 61.0028 64.1957 61.334C64.0498 61.2325 63.9038 61.1309 63.7535 61.0262C63.5624 60.893 63.3713 60.7597 63.1745 60.6223C62.9849 60.4902 62.7953 60.3581 62.6 60.222C59.3064 57.8849 56.961 54.4506 54.6782 51.182C54.5827 51.0453 54.4872 50.9087 54.3888 50.7678C53.9259 50.1032 53.4675 49.4357 53.0127 48.7655C52.5647 48.1061 52.1099 47.4518 51.6516 46.7995C51.315 46.3194 50.9805 45.8378 50.6463 45.3559C50.4797 45.1168 50.3122 44.8783 50.1438 44.6405C49.9068 44.3057 49.6735 43.9683 49.4403 43.6308C49.3034 43.4353 49.1664 43.2397 49.0254 43.0383C48.7562 42.5105 48.7562 42.5105 48.7938 42.0574C49.0726 41.4278 49.4699 40.891 49.8798 40.3427C49.9626 40.2254 50.0453 40.1082 50.1306 39.9874C50.3797 39.652 50.3797 39.652 50.8712 39.1265C51.957 39.1265 52.3086 39.586 53.0391 40.303C53.286 40.5383 53.533 40.7735 53.7802 41.0086C53.8988 41.1225 54.0174 41.2363 54.1397 41.3537C54.5343 41.7288 54.9402 42.0887 55.3524 42.4444C56.3386 43.2989 57.3064 44.1729 58.2737 45.0485C58.4651 45.22 58.6565 45.3915 58.8537 45.5682C60.2721 46.8502 61.6333 48.1793 62.9727 49.5438C64.0945 50.6805 65.2566 51.7531 66.5222 52.7286C66.6618 52.8464 66.8014 52.9642 66.9452 53.0855C66.9452 53.2251 66.9452 53.3647 66.9452 53.5085C67.0848 53.5085 67.2244 53.5085 67.3682 53.5085C67.3042 53.3951 67.2401 53.2817 67.1741 53.1649C64.1785 47.5607 64.0758 40.7315 63.5216 34.5396C63.4928 34.2199 63.4928 34.2199 63.4635 33.8938C63.4086 33.2799 63.3546 32.666 63.301 32.052C63.2845 31.8672 63.268 31.6823 63.251 31.4918C63.1726 30.5788 63.1199 29.6805 63.1382 28.763C63.6131 28.5142 64.089 28.2678 64.5659 28.0228C64.7 27.9522 64.8341 27.8816 64.9723 27.8088C65.7016 27.4366 66.1095 27.2825 66.9452 27.2825C67.9123 29.7868 68.7769 32.3159 69.6022 34.8701C69.6647 35.0627 69.7272 35.2552 69.7916 35.4536C71.2142 39.8365 72.5762 44.238 73.9247 48.644C73.9362 48.4327 73.9476 48.2213 73.9594 48.0035C73.9761 47.7199 73.993 47.4364 74.0098 47.1528C74.0256 46.876 74.0414 46.5992 74.0577 46.314C74.3537 42.4444 76.3352 38.6133 78.0946 35.2146C78.6219 34.1865 79.1349 33.1511 79.6506 32.1171C79.8455 31.7265 80.0408 31.3361 80.2362 30.9458C80.784 29.8516 81.3313 28.7571 81.8717 27.6593C81.9876 27.4245 81.9876 27.4245 82.1059 27.185C82.2421 26.9089 82.3777 26.6324 82.5124 26.3556C83.3908 24.5784 83.3908 24.5784 84.2188 24.4355Z" fill="#232320"/>
<path d="M89.7468 57.7016C91.1958 58.8232 92.557 60.0191 93.819 61.3484C93.9836 61.5183 93.9836 61.5183 94.1515 61.6917C94.8535 62.462 94.8535 62.462 94.8922 63.0247C94.5253 63.674 94.0488 64.2051 93.5414 64.7456C93.3714 64.927 93.3714 64.927 93.198 65.1121C90.4464 67.9788 86.8662 70.3626 82.7822 70.5139C82.3368 70.5156 81.8915 70.5139 81.4462 70.509C81.2258 70.5114 81.0054 70.5139 80.7783 70.5164C77.1543 70.5029 74.3086 69.1762 71.5983 66.8342C71.4636 66.7251 71.3289 66.616 71.1901 66.5037C69.8826 65.4345 68.8281 64.1429 67.7913 62.8157C68.1363 61.9922 68.6745 61.4098 69.2718 60.7535C69.3672 60.6464 69.4626 60.5392 69.5609 60.4288C69.8076 60.1581 70.0676 59.8995 70.3293 59.6432C70.4689 59.6432 70.6084 59.6432 70.7523 59.6432C70.7523 59.5036 70.7523 59.364 70.7523 59.2202C71.22 58.8291 71.6869 58.4667 72.1799 58.1098C72.324 58.0052 72.4682 57.9007 72.6167 57.7929C73.8375 56.9251 75.074 56.1957 76.4628 55.6247C76.6337 55.5532 76.8046 55.4818 76.9808 55.4082C81.2085 53.9613 86.2653 55.0877 89.7468 57.7016Z" fill="#EEECEA"/>
<path d="M125.531 9.51758C133.418 9.51758 141.304 9.51758 149.43 9.51758C149.43 11.751 149.43 13.9845 149.43 16.2856C141.543 16.2856 133.657 16.2856 125.531 16.2856C125.531 14.0521 125.531 11.8187 125.531 9.51758Z" fill="#FACC05"/>
<path d="M82.9661 58.6254C84.3881 59.4184 85.1578 60.2103 85.7024 61.745C85.9182 63.169 85.7451 64.1818 84.9225 65.3537C83.796 66.5761 82.8118 67.1749 81.1419 67.3365C79.9767 67.2987 79.052 66.8542 78.2041 66.0626C77.1053 64.8411 76.7814 63.7718 76.821 62.135C76.9433 61.0193 77.3152 60.2384 78.1421 59.4763C79.6561 58.2997 81.1178 58.0401 82.9661 58.6254Z" fill="#232320"/>
<path d="M125.531 9.51758C133.418 9.51758 141.304 9.51758 149.43 9.51758C149.43 11.751 149.43 13.9845 149.43 16.2856C141.543 16.2856 133.657 16.2856 125.531 16.2856C125.531 14.0521 125.531 11.8187 125.531 9.51758ZM125.954 9.94058C125.954 11.8948 125.954 13.8491 125.954 15.8626C133.631 15.8626 141.309 15.8626 149.219 15.8626C149.219 13.9083 149.219 11.9541 149.219 9.94058C141.541 9.94058 133.864 9.94058 125.954 9.94058Z" fill="#E6C40B"/>
<path d="M119.82 44.8379C119.96 44.8379 120.099 44.8379 120.243 44.8379C120.935 45.5294 121.189 46.4229 121.301 47.3759C121.231 47.6551 121.161 47.9343 121.089 48.2219C120.671 47.1052 120.252 45.9885 119.82 44.8379Z" fill="#EBCA0D"/>
<path d="M58.062 89.8867C58.1318 90.0263 58.2016 90.1659 58.2735 90.3097C58.0756 90.8088 57.8646 91.303 57.639 91.7902C57.4995 91.7902 57.3599 91.7902 57.216 91.7902C57.1462 91.9298 57.0765 92.0694 57.0045 92.2132C56.865 92.0038 56.7254 91.7944 56.5815 91.5787C57.0701 91.0204 57.5587 90.462 58.062 89.8867Z" fill="#EBC90E"/>
<path d="M91.9021 38.2812C91.9719 38.4906 92.0417 38.7 92.1136 38.9158C91.8871 39.0996 91.6573 39.2796 91.4262 39.4577C91.2986 39.5583 91.171 39.6589 91.0396 39.7626C90.6331 39.9733 90.6331 39.9733 89.7871 39.7618C90.4851 39.2732 91.183 38.7846 91.9021 38.2812Z" fill="#EAC70D"/>
<path d="M70.7523 59.4316C70.8919 59.5014 71.0315 59.5712 71.1753 59.6431C70.8845 60.0661 70.8845 60.0661 70.5408 60.4891C70.4012 60.4891 70.2616 60.4891 70.1178 60.4891C70.1178 60.6287 70.1178 60.7683 70.1178 60.9121C69.7688 60.9819 69.4199 61.0517 69.0603 61.1236C69.2621 60.8806 69.465 60.6384 69.6684 60.3966C69.7812 60.2617 69.8941 60.1267 70.0104 59.9877C70.3293 59.6431 70.3293 59.6431 70.7523 59.4316Z" fill="#F0EBD3"/>
<path d="M89.1526 78.4668C89.362 78.4668 89.5714 78.4668 89.7871 78.4668C89.7871 78.8856 89.7871 79.3043 89.7871 79.7358C89.9267 79.7358 90.0663 79.7358 90.2101 79.7358C90.1403 80.0848 90.0705 80.4337 89.9986 80.7933C89.4808 80.0165 89.1526 79.4087 89.1526 78.4668Z" fill="#E4C30C"/>
<path d="M65.8876 81.8516C65.5971 82.7229 65.0234 83.3412 64.1956 83.7551C64.293 82.8779 64.9392 81.8516 65.8876 81.8516Z" fill="#ECCA0C"/>
<path d="M70.9638 75.7168C71.1034 75.7866 71.243 75.8564 71.3868 75.9283C70.654 76.5565 70.654 76.5565 69.9063 77.1973C69.8365 76.9181 69.7667 76.6389 69.6948 76.3513C70.1104 76.1255 70.5342 75.9144 70.9638 75.7168Z" fill="#F0EBE4"/>
<path d="M64.4072 28.3398C64.3374 28.5492 64.2676 28.7586 64.1957 28.9743C63.9863 28.9743 63.7769 28.9743 63.5612 28.9743C63.5612 29.3233 63.5612 29.6723 63.5612 30.0318C63.4216 30.0318 63.282 30.0318 63.1382 30.0318C63.1382 29.6131 63.1382 29.1943 63.1382 28.7628C63.9313 28.3398 63.9313 28.3398 64.4072 28.3398Z" fill="#E9C70D"/>
<path d="M95.0747 71.9102C95.5633 72.3289 96.0518 72.7477 96.5552 73.1792C96.3458 73.3885 96.1364 73.5979 95.9207 73.8137C95.0747 72.386 95.0747 72.386 95.0747 71.9102Z" fill="#F0EBE4"/>
<path d="M98.4587 64.7188C99.2265 64.8583 99.9942 64.9979 100.785 65.1418C100.506 65.3511 100.227 65.5605 99.9392 65.7763C99.2064 65.3575 99.2064 65.3575 98.4587 64.9303C98.4587 64.8605 98.4587 64.7907 98.4587 64.7188Z" fill="#F0EBE4"/>
<path d="M43.2571 56.4707C44.5134 56.6801 44.5134 56.6801 45.7951 56.8937C45.7951 56.9635 45.7951 57.0333 45.7951 57.1052C44.156 57.1316 44.156 57.1316 43.6801 56.8937C43.6801 57.0333 43.6801 57.1729 43.6801 57.3167C43.5405 57.3167 43.4009 57.3167 43.2571 57.3167C43.2571 57.0375 43.2571 56.7583 43.2571 56.4707Z" fill="#D5B80E"/>
<path d="M92.1137 48.6445C92.3928 48.7841 92.672 48.9237 92.9597 49.0675C91.8443 49.7491 91.8443 49.7491 91.4792 49.9135C91.3396 49.8437 91.2 49.7739 91.0562 49.702C91.4051 49.3531 91.7541 49.0041 92.1137 48.6445Z" fill="#F0EBE4"/>
<path d="M111.783 91.5781C111.992 91.6479 112.202 91.7177 112.418 91.7896C111.789 92.3131 111.789 92.3131 111.149 92.8471C111.009 92.7773 110.869 92.7075 110.726 92.6356C111.075 92.2867 111.424 91.9377 111.783 91.5781Z" fill="#E9C70C"/>
<path d="M122.993 51.6055C123.062 52.1638 123.132 52.7222 123.204 53.2975C122.995 53.2277 122.785 53.1579 122.57 53.086C122.5 52.6672 122.43 52.2484 122.358 51.817C122.781 51.6055 122.781 51.6055 122.993 51.6055Z" fill="#F0CA0A"/>
</svg>
