<?xml version="1.0" encoding="UTF-8"?><svg id="design" xmlns="http://www.w3.org/2000/svg" viewBox="0 0 1580 2015.45"><defs><style>.cls-1,.cls-2{stroke-width:0px;}.cls-2{fill:#fff;}</style></defs><path class="cls-1" d="M1150.81,1469.96c-53.63-7.59-100.55,18.3-141.94,62.62-50.48,54.04-69.67,58.36-137.09,27.03-56.67-26.34-109.24-25.89-165.62.74-64.46,30.45-86.6,26.21-134.74-27.04-42.74-47.28-92.41-66.92-155.62-64.08-70.71,3.18-87.31-7.64-111.64-75.28-21.94-60.99-61.37-98.43-121.7-119.92-62.93-22.42-76.67-41.55-72.68-107.95,4.02-66.89-18.11-118-67.87-162.27-47.61-42.36-52.75-68.6-24.81-125.63,29.87-60.97,29.22-117.66-.69-178.36-27.14-55.09-21.81-82.63,24.68-123.37,51.97-45.54,73.16-99.08,68.62-167.6-3.94-59.53,12.27-82.64,69.22-102.08,62.65-21.38,106.38-58.8,125.16-123.2,16.66-57.15,55.19-80.77,113.57-74.39,63.45,6.93,112.51-17.55,155.03-64.45,46.53-51.33,69.44-55.84,132.54-25.96,58.36,27.63,112.66,27.31,170.74-.74,59.94-28.95,84.12-24.59,127.94,24.3,45.2,50.43,97.94,71.69,165.36,67.7,63.17-3.74,82.61,9.58,103.75,70.18,22.26,63.84,62.56,104.09,126.62,126.05,59.85,20.52,73.29,40.85,69.61,104.27-3.98,68.63,18.78,121.95,70.21,167.26,45.86,40.41,51.15,65.69,23.98,120.77-30.95,62.74-30.33,121.4.51,183.85,26.34,53.34,21.39,79.24-23.64,118.44-53.58,46.65-75.57,102.1-71.1,172.47,3.65,57.49-11.64,79.39-65.91,98.5-60.55,21.31-104.02,55.71-126.39,118.75-25.6,72.14-40.65,79.37-126.12,79.37ZM98.6,788.77c-.43,379.35,310.1,691.18,688.95,691.86,381.62.69,692.24-308.68,692.83-690.03.59-379.98-308.93-691.2-688.23-692.02-380.88-.83-693.12,309.9-693.55,690.18Z"/><path class="cls-2" d="M98.6,788.77c.43-380.28,312.67-691.01,693.55-690.18,379.31.82,688.82,312.04,688.23,692.02-.59,381.34-311.22,690.71-692.83,690.03-378.86-.68-689.38-312.52-688.95-691.86ZM789.16,112.24c-375.8.92-676.91,303.77-676.33,680.24.57,371.91,305.19,675.87,676.36,674.88,375.86-1,678.84-304.27,678.4-679.07-.44-373.01-305.46-676.97-678.43-676.06Z"/><path class="cls-1" d="M789.16,112.24c372.96-.91,677.99,303.05,678.43,676.06.44,374.8-302.54,678.07-678.4,679.07-371.17.98-675.79-302.97-676.36-674.88-.57-376.48,300.54-679.33,676.33-680.24ZM1202.15,789.2c.09-227.64-185.38-412.65-413.53-412.51-225.47.14-412.2,186.87-412.08,412.09.11,227.75,185.77,413.66,413.05,413.61,228.15-.04,412.47-184.65,412.56-413.2ZM307.89,801.03c-34.23,2.36-51.44-14.84-61.96-45.09-5.55,36.37-29.01,43.68-59.9,45.27,28.11,17.79,35.08,40.84,22.75,72.1,26.2-21.03,50.71-20.66,77.14-.63-12.05-31.08-6.5-53.57,21.97-71.66ZM1332.21,756.77c-7.6,33.56-28.97,43.99-61.07,44.25,28.26,17.91,35.17,41.05,23.59,72.48,25.95-23.29,49.82-20.07,77.56-.04-20.73-34.17-2.18-53.45,28.57-75.77-39.85,3.57-60.47-7.82-68.65-40.92Z"/><path class="cls-2" d="M1202.15,789.2c-.09,228.55-184.41,413.15-412.56,413.2-227.29.04-412.94-185.86-413.05-413.61-.11-225.22,186.61-411.94,412.08-412.09,228.15-.15,413.62,184.87,413.53,412.51ZM1189.33,788.97c-.56-221.12-181.52-401.12-401.56-399.44-220.38,1.69-397.5,180.52-396.97,400.83.53,223.39,178.68,399.24,403.91,398.71,217-.51,395.18-181.16,394.62-400.1Z"/><path class="cls-1" d="M1189.33,788.97c.55,218.95-177.62,399.6-394.62,400.1-225.24.53-403.38-175.32-403.91-398.71-.52-220.31,176.59-399.14,396.97-400.83,220.04-1.69,401,178.32,401.56,399.44Z"/><path class="cls-1" d="M1240.92,415.92c16.75.89,28.99,12.15,30.39,32.52,1.7,24.72-35.26,56.64-63.46,56.07-19.89-.41-31.44-11.22-33.01-30.56-2.01-24.81,33.87-57.65,66.08-58.03Z"/><path class="cls-1" d="M1218.16,1031.45c19.28-38.02,39.33-44.39,72.86-26.18,30.1,16.35,35.26,36.23,16.15,70.88-29.13-14.63-58.39-29.32-89.01-44.7Z"/><path class="cls-1" d="M720.58,789.09c0,30.52-.31,61.04.11,91.55.26,18.87-4.39,34.06-26.45,34.25-23.19.2-25.63-17.02-25.67-34.77-.12-61.02-.06-122.05-.07-183.07,0-18.45,4.6-34.31,26.78-34.29,22.86.02,25.63,16.61,25.5,34.79-.22,30.51-.06,61.03-.06,91.54h-.13Z"/><path class="cls-1" d="M867.12,788.94c0-31.58.09-63.15-.03-94.73-.07-18.38,6.81-31.29,26.92-31.4,19.35-.1,24.98,13.15,25,29.9.09,64.08.06,128.16,0,192.24-.02,16.98-6.45,29.53-25.28,29.97-20.82.48-26.58-13.17-26.53-31.26.08-31.58.02-63.15.02-94.73h-.08Z"/><path class="cls-1" d="M1114.96,844.18v-45.12c2.92,0,5.84,0,8.75.01v45.12c-2.92,0-5.84,0-8.75-.01Z"/><path class="cls-2" d="M338.48,677.61c-1.41,6.32-3.65,12.17-6.7,17.54-3.05,5.37-6.63,10.04-10.74,14-4.11,3.96-8.42,7-12.94,9.12-4.52,2.12-9.08,3.05-13.69,2.8l-2.21-31.54c4.09-.52,7.92-2.17,11.49-4.95,3.57-2.78,6-6.76,7.3-11.94,1.27-5.05.98-9.58-.88-13.57-1.85-3.99-4.86-6.46-9.05-7.39-3.26-.73-6.41-.16-9.43,1.7-3.02,1.86-5.68,4.88-7.99,9.05l-9.01,17.32c-3.14,6.07-7.07,11.08-11.79,15.04-4.72,3.96-10.03,6.68-15.91,8.16-5.89,1.49-12.22,1.47-19.02-.05-13.19-2.95-22.55-9.4-28.08-19.35-5.52-9.95-6.6-22.49-3.22-37.62,1.86-8.3,4.69-15.29,8.49-20.95,3.8-5.66,8.54-10.16,14.23-13.51,5.69-3.35,12.35-5.54,19.98-6.57l2.64,31.44c-3.75.21-7.43,1.63-11.03,4.27-3.61,2.65-5.99,6.57-7.16,11.78-1.16,5.21-.83,9.55,1,13.01,1.83,3.47,5.1,5.73,9.8,6.78,3.27.73,6.24.16,8.92-1.72,2.68-1.87,5-4.74,6.96-8.6l9.01-17.32c5.1-9.92,12.06-16.99,20.89-21.2,8.83-4.21,18.01-5.25,27.54-3.12,8.62,1.93,15.58,5.47,20.87,10.62,5.3,5.16,8.8,11.7,10.53,19.63,1.72,7.94,1.45,16.99-.82,27.15Z"/><path class="cls-2" d="M346.44,623.23l-98.06-113.23,14.72-26.7,98.98,111.56-15.64,28.37ZM396.66,532.11l-147.18-24.11,14.72-26.7,148.1,22.44-15.64,28.37ZM334.83,588.98l-24.97-13.76,42.4-76.93,24.97,13.76-42.4,76.93Z"/><path class="cls-2" d="M434.63,484.35l-80.92-75.72-26.56,28.38-21.7-20.3,73.95-79.03,21.7,20.3-26.56,28.38,80.92,75.72-20.83,22.26Z"/><path class="cls-2" d="M495.96,426.05l-83.59-112.97,24.66-18.25,83.59,112.97-24.66,18.25Z"/><path class="cls-2" d="M583.27,374.14c-5.81,2.87-11.76,4.8-17.86,5.8-6.1,1-11.98,1.14-17.64.43-5.66-.71-10.74-2.16-15.22-4.35-4.48-2.19-8.07-5.15-10.77-8.9l23.16-21.52c2.97,2.86,6.66,4.81,11.07,5.84,4.41,1.03,9.03.43,13.87-1.82,4.73-2.19,8.07-5.25,10.01-9.2,1.95-3.95,1.97-7.84.07-11.68-1.48-3-3.9-5.09-7.24-6.27-3.35-1.18-7.37-1.36-12.06-.54l-19.14,3.86c-6.69,1.37-13.06,1.45-19.11.26-6.04-1.19-11.49-3.62-16.34-7.27-4.85-3.65-8.81-8.59-11.9-14.83-5.99-12.12-6.84-23.45-2.56-34,4.28-10.55,13.37-19.26,27.27-26.12,7.63-3.77,14.84-5.95,21.63-6.54,6.79-.59,13.27.27,19.45,2.59,6.18,2.32,12.06,6.13,17.66,11.43l-22.81,21.79c-2.51-2.79-5.93-4.76-10.25-5.91-4.32-1.15-8.88-.54-13.66,1.82-4.78,2.36-7.95,5.35-9.5,8.95-1.55,3.6-1.26,7.56.88,11.88,1.48,3,3.79,4.96,6.94,5.87,3.14.91,6.83.92,11.06.02l19.14-3.86c10.92-2.26,20.8-1.28,29.62,2.95,8.82,4.23,15.39,10.72,19.72,19.48,3.91,7.92,5.52,15.56,4.84,22.91-.69,7.36-3.58,14.2-8.67,20.52-5.09,6.32-12.31,11.79-21.65,16.41Z"/><path class="cls-2" d="M644.01,345.02l-32.86-136.64,85.96-20.68,6.95,28.89-56.14,13.5,6.34,26.35,45.39-10.92,6.9,28.69-45.39,10.92,12.68,52.7-29.83,7.17Z"/><path class="cls-2" d="M734.35,321.47l52.54-140.27,30.49.15-50.64,140.28-32.39-.16ZM758.88,294.9l.15-28.51,87.84.45-.15,28.51-87.84-.45ZM838.39,322l-49.21-140.79,30.49.16,51.11,140.8-32.39-.16Z"/><path class="cls-2" d="M934.78,342.48c-12.76-3.44-23.2-9.47-31.33-18.11s-13.57-18.97-16.31-31.01c-2.74-12.04-2.27-24.9,1.42-38.6,3.69-13.7,9.74-25.06,18.17-34.09,8.42-9.03,18.31-15.23,29.68-18.62,11.37-3.38,23.43-3.35,36.19.08,9.32,2.51,17.41,6.53,24.28,12.05,6.86,5.52,12.31,12.15,16.35,19.9s6.49,16.09,7.36,25.06l-30.45,2.4c-.62-5.02-2.04-9.63-4.27-13.83-2.22-4.2-5.09-7.74-8.58-10.63-3.5-2.88-7.64-4.97-12.42-6.26-6.75-1.82-13.23-1.69-19.44.38-6.22,2.07-11.64,5.84-16.27,11.31-4.63,5.48-8.04,12.28-10.24,20.42-2.19,8.14-2.63,15.75-1.32,22.83,1.32,7.08,4.16,13.11,8.54,18.1,4.38,4.99,10,8.41,16.87,10.26,5.03,1.36,9.76,1.59,14.21.71,4.45-.88,8.58-2.68,12.41-5.39,3.82-2.71,7.38-6.05,10.69-10.01l25.12,17.37c-5.17,7.48-11.49,13.57-18.94,18.29-7.46,4.72-15.58,7.76-24.37,9.13-8.79,1.37-17.91.79-27.35-1.76Z"/><path class="cls-2" d="M1032.4,378.31l54.53-96.47-33.84-19.13,14.62-25.87,94.22,53.26-14.62,25.87-33.84-19.13-54.54,96.47-26.54-15Z"/><path class="cls-2" d="M1103.75,424.12l89.55-108.31,23.64,19.55-89.55,108.31-23.64-19.55Z"/><path class="cls-2" d="M1184.96,508.66c-8.44-10.81-13.46-22.29-15.04-34.43-1.58-12.14.08-23.92,5.01-35.34,4.92-11.42,12.92-21.45,24-30.1,11.18-8.73,22.91-14.1,35.18-16.11,12.27-2.01,24.09-.8,35.44,3.63,11.35,4.43,21.21,12,29.58,22.72,8.37,10.71,13.32,22.12,14.87,34.21,1.54,12.09-.15,23.84-5.07,35.27-4.92,11.42-12.98,21.5-24.16,30.23-11.08,8.65-22.73,14-34.96,16.06-12.23,2.06-24.01.89-35.33-3.48-11.32-4.38-21.16-11.93-29.52-22.64ZM1208.38,490.38c4.61,5.91,10.1,10,16.47,12.28s13.08,2.68,20.16,1.19c7.07-1.49,13.87-4.79,20.42-9.9,6.64-5.19,11.51-11.08,14.59-17.68,3.08-6.6,4.31-13.28,3.7-20.05-.62-6.77-3.23-13.11-7.85-19.02-4.61-5.91-10.13-9.98-16.55-12.22-6.42-2.24-13.2-2.66-20.35-1.27-7.15,1.39-14.05,4.68-20.69,9.87-6.54,5.11-11.35,10.96-14.44,17.56-3.09,6.6-4.25,13.31-3.5,20.14.75,6.83,3.43,13.2,8.04,19.11Z"/><path class="cls-2" d="M1235.45,575.13l132.36-47.22,10.82,30.33-61.08,83.9,80.74-28.81,10.31,28.89-132.36,47.22-10.31-28.9,62.84-86.15-83.01,29.62-10.31-28.89Z"/><path class="cls-2" d="M474.52,743.58v-37.96c4.44.35,9.01-.69,13.7-3.12,4.69-2.43,9.29-5.68,13.82-9.75,4.52-4.07,8.51-8.1,11.97-12.09l25.17,25.74c-6.09,7.28-12.59,13.91-19.5,19.89-6.91,5.98-14.07,10.57-21.47,13.78-7.4,3.21-15.3,4.38-23.69,3.51ZM510.06,863.18v-159.64l3.95-22.36h33.81v182h-37.76Z"/><path class="cls-2" d="M657.13,866.31c-14.15,0-26.74-4.03-37.76-12.09-11.02-8.06-19.62-19.15-25.79-33.28-6.17-14.12-9.25-30.38-9.25-48.75s3.08-34.62,9.25-48.75c6.17-14.12,14.72-25.22,25.66-33.28,10.94-8.06,23.48-12.09,37.63-12.09s26.98,4.03,38,12.09c11.02,8.06,19.7,19.15,26.03,33.28,6.33,14.13,9.5,30.38,9.5,48.75s-3.13,34.63-9.38,48.75c-6.25,14.13-14.89,25.22-25.91,33.28-11.02,8.06-23.69,12.09-38,12.09ZM657.38,828.35c6.58,0,12.46-2.43,17.64-7.28,5.18-4.85,9.25-11.48,12.22-19.89,2.96-8.41,4.44-18.07,4.44-28.99s-1.48-20.89-4.44-29.38c-2.96-8.49-7.08-15.17-12.34-20.02-5.27-4.85-11.27-7.28-18.01-7.28s-12.42,2.43-17.52,7.28c-5.1,4.86-9.09,11.53-11.97,20.02-2.88,8.49-4.32,18.29-4.32,29.38s1.44,20.63,4.32,29.12c2.88,8.49,6.91,15.12,12.09,19.89,5.18,4.77,11.14,7.15,17.89,7.15Z"/><path class="cls-2" d="M825.43,866.31c-14.15,0-26.74-4.03-37.76-12.09-11.02-8.06-19.62-19.15-25.79-33.28-6.17-14.12-9.25-30.38-9.25-48.75s3.08-34.62,9.25-48.75c6.17-14.12,14.72-25.22,25.66-33.28,10.94-8.06,23.48-12.09,37.63-12.09s26.98,4.03,38,12.09c11.02,8.06,19.7,19.15,26.03,33.28,6.33,14.13,9.5,30.38,9.5,48.75s-3.13,34.63-9.38,48.75c-6.25,14.13-14.89,25.22-25.91,33.28-11.02,8.06-23.69,12.09-38,12.09ZM825.68,828.35c6.58,0,12.46-2.43,17.64-7.28,5.18-4.85,9.25-11.48,12.21-19.89,2.96-8.41,4.44-18.07,4.44-28.99s-1.48-20.89-4.44-29.38c-2.96-8.49-7.08-15.17-12.34-20.02-5.27-4.85-11.27-7.28-18.01-7.28s-12.42,2.43-17.52,7.28c-5.1,4.86-9.09,11.53-11.97,20.02-2.88,8.49-4.32,18.29-4.32,29.38s1.44,20.63,4.32,29.12c2.88,8.49,6.91,15.12,12.09,19.89,5.18,4.77,11.14,7.15,17.89,7.15Z"/><path class="cls-2" d="M963.87,768.8c-7.9,0-14.97-1.95-21.22-5.85-6.25-3.9-11.1-9.31-14.56-16.25-3.46-6.93-5.18-14.82-5.18-23.66s1.73-17.2,5.18-24.05c3.46-6.84,8.3-12.22,14.56-16.12,6.25-3.9,13.33-5.85,21.22-5.85s15.13,1.99,21.22,5.98c6.08,3.99,10.9,9.4,14.44,16.25,3.54,6.85,5.31,14.78,5.31,23.79s-1.77,16.73-5.31,23.66c-3.54,6.94-8.35,12.35-14.44,16.25-6.09,3.9-13.16,5.85-21.22,5.85ZM934.75,863.18l122.65-182h37.02l-123.39,182h-36.28ZM963.87,743.06c4.44,0,8.06-1.95,10.86-5.85,2.8-3.9,4.2-8.62,4.2-14.17s-1.4-10.49-4.2-14.3c-2.8-3.81-6.42-5.72-10.86-5.72s-8.06,1.91-10.86,5.72c-2.8,3.82-4.2,8.58-4.2,14.3s1.4,10.27,4.2,14.17c2.79,3.9,6.42,5.85,10.86,5.85ZM1067.02,867.09c-8.06,0-15.18-1.95-21.35-5.85-6.17-3.9-10.98-9.32-14.44-16.25-3.46-6.93-5.18-14.82-5.18-23.66s1.73-17.2,5.18-24.05c3.46-6.84,8.27-12.22,14.44-16.12,6.17-3.9,13.28-5.85,21.35-5.85s15.13,1.99,21.22,5.98c6.08,3.99,10.86,9.41,14.31,16.25,3.45,6.85,5.18,14.78,5.18,23.79s-1.73,16.73-5.18,23.66c-3.45,6.93-8.27,12.35-14.44,16.25-6.17,3.9-13.2,5.85-21.1,5.85ZM1066.77,841.35c4.6,0,8.31-1.95,11.11-5.85,2.79-3.9,4.2-8.62,4.2-14.17s-1.4-10.49-4.2-14.3c-2.8-3.81-6.5-5.72-11.11-5.72s-8.02,1.91-10.73,5.72c-2.71,3.81-4.07,8.58-4.07,14.3s1.36,10.27,4.07,14.17c2.71,3.9,6.29,5.85,10.73,5.85Z"/><path class="cls-2" d="M249.39,1060.58c-5.76-13.2-8.14-26.02-7.15-38.45,1-12.43,4.96-23.59,11.91-33.46,6.95-9.87,16.57-17.48,28.86-22.85,12.29-5.36,24.42-7.24,36.38-5.62,11.96,1.62,22.83,6.29,32.63,14.02,9.79,7.73,17.57,18.19,23.33,31.39,3.57,8.19,5.68,16.1,6.32,23.75.64,7.65.08,14.83-1.67,21.57-1.76,6.73-4.47,12.86-8.13,18.39l-24.56-18.31c1.98-3.05,3.42-6.55,4.32-10.5.9-3.96,1.18-7.97.85-12.05-.33-4.08-1.29-7.95-2.89-11.61-3.15-7.21-7.5-12.91-13.06-17.11-5.56-4.2-11.84-6.65-18.85-7.38-7.01-.72-14.17.51-21.48,3.7-7.31,3.19-13.11,7.54-17.4,13.05-4.29,5.51-6.81,11.84-7.55,19.01-.74,7.16.54,14.53,3.85,22.11,2.51,5.74,5.76,10.36,9.77,13.85s8.42,5.71,13.26,6.65c4.83.95,9.74.33,14.73-1.84l16.76,26.07c-11.83,5.16-22.93,7.02-33.29,5.58-10.36-1.45-19.53-5.59-27.49-12.45-7.96-6.86-14.45-16.03-19.46-27.51ZM297.12,1040.85l21.58-9.41,25.03,57.38-16.53,7.21-12.24-14.3-17.83-40.88Z"/><path class="cls-2" d="M348.47,1211.6c-8.07-8.88-13.46-18-16.15-27.35-2.69-9.36-2.68-18.42.03-27.2,2.71-8.77,8.09-16.82,16.15-24.14l60.95-55.43,21.66,23.82-60.95,55.43c-3.75,3.41-6.26,7.13-7.54,11.18-1.28,4.05-1.35,8.21-.2,12.48,1.15,4.27,3.56,8.43,7.24,12.48,3.59,3.94,7.48,6.72,11.67,8.31,4.19,1.6,8.36,1.95,12.51,1.06,4.15-.89,8.1-3.04,11.84-6.44l60.95-55.43,21.66,23.82-60.95,55.43c-8.05,7.32-16.6,11.89-25.63,13.71-9.04,1.82-18.13.9-27.28-2.77-9.15-3.67-17.81-9.99-25.97-18.96Z"/><path class="cls-2" d="M431.95,1289.94l113.34-88.14,27.75,15.94-111.61,89.14-29.48-16.93ZM466.73,1280.79l13.42-23.38,79.96,45.91-13.42,23.38-79.96-45.91ZM526.65,1344.32l20.73-141.32,27.75,15.93-18.99,142.32-29.48-16.93Z"/><path class="cls-2" d="M611.34,1379.21l27.04-130.1,53.85,11.19c9.92,2.06,18.35,5.72,25.3,10.98,6.94,5.26,11.92,11.59,14.95,19,3.02,7.41,3.66,15.33,1.91,23.76-1.75,8.43-5.53,15.46-11.33,21.1-5.8,5.65-12.97,9.49-21.5,11.53-8.53,2.04-17.82,2.02-27.87-.07l-21.74-4.52-9.08,43.68-31.53-6.55ZM657.66,1314.58l21.34,4.44c3.65.76,7.06.76,10.22,0,3.15-.77,5.8-2.19,7.93-4.26,2.13-2.08,3.51-4.6,4.13-7.58.95-4.58-.06-8.74-3.03-12.46-2.97-3.72-7.4-6.19-13.27-7.41l-20.76-4.31-6.57,31.59ZM685.75,1394.67l-20.2-58.1,27.13-11.62,29.1,77.2-36.03-7.49Z"/><path class="cls-2" d="M773.36,1405.43l37.91-138.49,31.76-3.88-35.92,138.25-33.75,4.12ZM795.72,1377.27l-3.26-26.76,91.52-11.17,3.26,26.76-91.52,11.17ZM881.76,1392.21l-68.11-125.55,31.76-3.87,70.09,125.31-33.75,4.12Z"/><path class="cls-2" d="M967.77,1372.19l-52.83-121.92,31.01-13.44,88.56,49.96-32.22-74.37,29.55-12.8,52.83,121.92-29.55,12.8-90.94-51.42,33.13,76.46-29.55,12.8Z"/><path class="cls-2" d="M1161.18,1269.38l-64.36-82.69-32.2,25.06-17.26-22.17,89.65-69.77,17.25,22.17-32.2,25.06,64.36,82.69-25.25,19.65Z"/><path class="cls-2" d="M1254.17,1187.68l-104.96-81.49,55.93-72.04,22.19,17.23-36.18,46.6,19.19,14.9,30.3-39.02,21.44,16.65-30.29,39.02,19.94,15.48,36.8-47.39,22.19,17.23-56.54,72.83Z"/><path class="cls-2" d="M1343.4,1056.86l-124.66-46.01,31.58-85.56,26.36,9.73-20.43,55.35,22.79,8.41,17.11-46.34,25.46,9.4-17.11,46.34,23.68,8.74,20.78-56.29,26.36,9.73-31.93,86.5Z"/></svg>