<svg width="30" height="35" viewBox="0 0 30 35" fill="none" xmlns="http://www.w3.org/2000/svg">
<g clip-path="url(#clip0_14848_1557)">
<path d="M6.50743 29.75H5.42969V34H6.50743V29.75Z" fill="#566079"/>
<path d="M23.7516 29.75H22.6738V34H23.7516V29.75Z" fill="#566079"/>
<path d="M29.1403 34H28.0626V27.0938C28.0626 24.3206 25.864 23.375 22.5014 22.2859C20.125 21.505 17.2852 20.3203 17.2852 19.125V15.4062H18.3629V19.125C18.5192 19.5234 20.6154 20.5434 22.8463 21.2766C25.794 22.2487 29.1403 23.375 29.1403 27.0938V34Z" fill="#566079"/>
<path d="M1.11876 34H0.0410156V27.0938C0.0410156 23.3484 3.38741 22.2487 6.33504 21.2766C8.56597 20.5434 10.646 19.5234 10.8238 19.0878V15.4062H11.9016V19.125C11.9016 20.3203 9.06174 21.505 6.68531 22.2859C3.31736 23.375 1.11876 24.3206 1.11876 27.0938V34Z" fill="#566079"/>
<path d="M14.5909 17C9.20215 17 9.20215 11.6184 9.20215 9.03125V7.4375C9.20215 7.2966 9.25892 7.16149 9.35998 7.06186C9.46104 6.96223 9.5981 6.90625 9.74102 6.90625C10.1698 6.90625 10.581 6.73833 10.8841 6.43944C11.1873 6.14056 11.3576 5.73519 11.3576 5.3125C11.3576 5.1716 11.4144 5.03649 11.5155 4.93686C11.6165 4.83723 11.7536 4.78125 11.8965 4.78125C12.0394 4.78125 12.1765 4.83723 12.2775 4.93686C12.3786 5.03649 12.4354 5.1716 12.4354 5.3125C12.4354 6.06687 13.761 6.90625 15.6686 6.90625C16.8942 6.8759 18.0919 6.53959 19.1497 5.92875C19.2311 5.8773 19.325 5.84835 19.4216 5.84497C19.5182 5.84158 19.6139 5.86388 19.6988 5.90951C19.7836 5.95514 19.8545 6.02242 19.9039 6.10432C19.9533 6.18622 19.9794 6.27971 19.9796 6.375V9.03125C19.9796 11.6184 19.9796 17 14.5909 17ZM10.2799 7.91562V9.03125C10.2799 13.2812 11.002 15.9375 14.5909 15.9375C18.1798 15.9375 18.9018 13.2812 18.9018 9.03125V7.24626C17.8869 7.70636 16.7856 7.95244 15.6686 7.96875C14.3367 8.0331 13.0301 7.59421 12.0151 6.74156C11.8205 7.04203 11.5667 7.30081 11.2686 7.50251C10.9705 7.70422 10.6342 7.84471 10.2799 7.91562Z" fill="#566079"/>
<path d="M18.9014 17.5312V16.4688C19.9018 16.4688 20.8612 16.0769 21.5687 15.3795C22.2761 14.6821 22.6735 13.7363 22.6735 12.75C22.689 12.1 22.5271 11.4578 22.2047 10.8906L23.1423 10.3594C23.5568 11.0889 23.767 11.914 23.7512 12.75C23.7512 14.0181 23.2403 15.2342 22.3307 16.1308C21.4212 17.0275 20.1876 17.5312 18.9014 17.5312Z" fill="#566079"/>
<path d="M21.0568 12.2188V11.1562C22.2154 11.1562 23.2123 9.69531 23.2123 8.5C23.2123 7.30469 22.2154 5.84375 21.0568 5.84375C20.9139 5.84375 20.7768 5.78777 20.6758 5.68814C20.5747 5.58851 20.5179 5.4534 20.5179 5.3125C20.5179 2.81031 18.5241 1.0625 15.6681 1.0625H13.5126C10.6566 1.0625 8.66273 2.81031 8.66273 5.3125C8.66273 5.4534 8.60596 5.58851 8.5049 5.68814C8.40384 5.78777 8.26678 5.84375 8.12386 5.84375C6.96528 5.84375 5.96837 7.30469 5.96837 8.5C5.96837 9.69531 6.96528 11.1562 8.12386 11.1562V12.2188C6.30247 12.2188 4.89062 10.2212 4.89062 8.5C4.89062 6.94875 6.04381 5.16907 7.58499 4.83438C7.82748 2.00813 10.2362 0 13.5126 0H15.6681C18.9013 0 21.3316 2.00813 21.5957 4.83438C23.1584 5.16907 24.29 6.95937 24.29 8.5C24.29 10.2212 22.8782 12.2188 21.0568 12.2188Z" fill="#566079"/>
<path d="M10.2794 17.5312C8.99313 17.5312 7.75955 17.0275 6.85002 16.1308C5.9405 15.2342 5.42954 14.0181 5.42954 12.75C5.41377 11.914 5.62394 11.0889 6.03847 10.3594L6.9761 10.8906C6.65366 11.4578 6.49175 12.1 6.50728 12.75C6.50728 13.7363 6.9047 14.6821 7.6121 15.3795C8.31951 16.0769 9.27896 16.4688 10.2794 16.4688V17.5312Z" fill="#566079"/>
<path d="M14.5903 29.75C14.5141 29.7497 14.4387 29.7334 14.3694 29.7022C14.0945 29.58 7.58496 26.6634 7.58496 22.8438V21.25H8.66271V22.8438C8.66271 25.3459 12.7474 27.7737 14.5903 28.6344C16.4332 27.7737 20.5179 25.3406 20.5179 22.8438V21.25H21.5956V22.8438C21.5956 26.6634 15.0861 29.58 14.8112 29.7022C14.7419 29.7334 14.6665 29.7497 14.5903 29.75Z" fill="#566079"/>
<path d="M11.8961 20.7188H10.8184V21.7812H11.8961V20.7188Z" fill="#566079"/>
<path d="M13.5133 21.25H12.4355V22.3125H13.5133V21.25Z" fill="#566079"/>
<path d="M15.1295 21.7812H14.0518V22.8438H15.1295V21.7812Z" fill="#566079"/>
<path d="M15.1295 23.375H14.0518V24.4375H15.1295V23.375Z" fill="#566079"/>
<path d="M16.7457 21.25H15.668V22.3125H16.7457V21.25Z" fill="#566079"/>
<path d="M18.3629 20.7188H17.2852V21.7812H18.3629V20.7188Z" fill="#566079"/>
</g>
<line y1="34.5" x2="29.3919" y2="34.5" stroke="#566079"/>
<defs>
<clipPath id="clip0_14848_1557">
<rect width="29.0991" height="34" fill="white" transform="translate(0.0410156)"/>
</clipPath>
</defs>
</svg>
